<svg xmlns="http://www.w3.org/2000/svg" xmlns:xlink="http://www.w3.org/1999/xlink" width="600" height="400" viewBox="0 0 2400 1600">
<defs>
  <clipPath id="clip910">
    <rect x="0" y="0" width="2400" height="1600"></rect>
  </clipPath>
</defs>
<path clip-path="url(#clip910)" d="M0 1600 L2400 1600 L2400 0 L0 0  Z" fill="#ffffff" fill-rule="evenodd" fill-opacity="1"></path>
<defs>
  <clipPath id="clip911">
    <rect x="480" y="0" width="1681" height="1600"></rect>
  </clipPath>
</defs>
<path clip-path="url(#clip910)" d="M247.459 1423.18 L2352.76 1423.18 L2352.76 123.472 L247.459 123.472  Z" fill="#ffffff" fill-rule="evenodd" fill-opacity="1"></path>
<defs>
  <clipPath id="clip912">
    <rect x="247" y="123" width="2106" height="1301"></rect>
  </clipPath>
</defs>
<polyline clip-path="url(#clip912)" style="stroke:#000000; stroke-linecap:round; stroke-linejoin:round; stroke-width:2; stroke-opacity:0.1; fill:none" points="327.915,1423.18 327.915,123.472 "></polyline>
<polyline clip-path="url(#clip912)" style="stroke:#000000; stroke-linecap:round; stroke-linejoin:round; stroke-width:2; stroke-opacity:0.1; fill:none" points="889.555,1423.18 889.555,123.472 "></polyline>
<polyline clip-path="url(#clip912)" style="stroke:#000000; stroke-linecap:round; stroke-linejoin:round; stroke-width:2; stroke-opacity:0.1; fill:none" points="1451.19,1423.18 1451.19,123.472 "></polyline>
<polyline clip-path="url(#clip912)" style="stroke:#000000; stroke-linecap:round; stroke-linejoin:round; stroke-width:2; stroke-opacity:0.1; fill:none" points="2012.83,1423.18 2012.83,123.472 "></polyline>
<polyline clip-path="url(#clip912)" style="stroke:#000000; stroke-linecap:round; stroke-linejoin:round; stroke-width:2; stroke-opacity:0.1; fill:none" points="247.459,1413.31 2352.76,1413.31 "></polyline>
<polyline clip-path="url(#clip912)" style="stroke:#000000; stroke-linecap:round; stroke-linejoin:round; stroke-width:2; stroke-opacity:0.1; fill:none" points="247.459,1107.8 2352.76,1107.8 "></polyline>
<polyline clip-path="url(#clip912)" style="stroke:#000000; stroke-linecap:round; stroke-linejoin:round; stroke-width:2; stroke-opacity:0.1; fill:none" points="247.459,802.291 2352.76,802.291 "></polyline>
<polyline clip-path="url(#clip912)" style="stroke:#000000; stroke-linecap:round; stroke-linejoin:round; stroke-width:2; stroke-opacity:0.1; fill:none" points="247.459,496.784 2352.76,496.784 "></polyline>
<polyline clip-path="url(#clip912)" style="stroke:#000000; stroke-linecap:round; stroke-linejoin:round; stroke-width:2; stroke-opacity:0.1; fill:none" points="247.459,191.276 2352.76,191.276 "></polyline>
<polyline clip-path="url(#clip910)" style="stroke:#000000; stroke-linecap:round; stroke-linejoin:round; stroke-width:4; stroke-opacity:1; fill:none" points="247.459,1423.18 2352.76,1423.18 "></polyline>
<polyline clip-path="url(#clip910)" style="stroke:#000000; stroke-linecap:round; stroke-linejoin:round; stroke-width:4; stroke-opacity:1; fill:none" points="327.915,1423.18 327.915,1404.28 "></polyline>
<polyline clip-path="url(#clip910)" style="stroke:#000000; stroke-linecap:round; stroke-linejoin:round; stroke-width:4; stroke-opacity:1; fill:none" points="889.555,1423.18 889.555,1404.28 "></polyline>
<polyline clip-path="url(#clip910)" style="stroke:#000000; stroke-linecap:round; stroke-linejoin:round; stroke-width:4; stroke-opacity:1; fill:none" points="1451.19,1423.18 1451.19,1404.28 "></polyline>
<polyline clip-path="url(#clip910)" style="stroke:#000000; stroke-linecap:round; stroke-linejoin:round; stroke-width:4; stroke-opacity:1; fill:none" points="2012.83,1423.18 2012.83,1404.28 "></polyline>
<path clip-path="url(#clip910)" d="M313.321 1466.44 Q310.172 1466.44 308.321 1468.59 Q306.492 1470.74 306.492 1474.49 Q306.492 1478.22 308.321 1480.39 Q310.172 1482.55 313.321 1482.55 Q316.469 1482.55 318.297 1480.39 Q320.149 1478.22 320.149 1474.49 Q320.149 1470.74 318.297 1468.59 Q316.469 1466.44 313.321 1466.44 M322.603 1451.78 L322.603 1456.04 Q320.844 1455.21 319.038 1454.77 Q317.256 1454.33 315.496 1454.33 Q310.867 1454.33 308.413 1457.45 Q305.983 1460.58 305.635 1466.9 Q307.001 1464.89 309.061 1463.82 Q311.121 1462.73 313.598 1462.73 Q318.807 1462.73 321.816 1465.9 Q324.848 1469.05 324.848 1474.49 Q324.848 1479.82 321.7 1483.03 Q318.552 1486.25 313.321 1486.25 Q307.325 1486.25 304.154 1481.67 Q300.983 1477.06 300.983 1468.33 Q300.983 1460.14 304.871 1455.28 Q308.76 1450.39 315.311 1450.39 Q317.071 1450.39 318.853 1450.74 Q320.658 1451.09 322.603 1451.78 Z" fill="#000000" fill-rule="nonzero" fill-opacity="1"></path><path clip-path="url(#clip910)" d="M342.904 1454.1 Q339.293 1454.1 337.464 1457.66 Q335.658 1461.2 335.658 1468.33 Q335.658 1475.44 337.464 1479.01 Q339.293 1482.55 342.904 1482.55 Q346.538 1482.55 348.343 1479.01 Q350.172 1475.44 350.172 1468.33 Q350.172 1461.2 348.343 1457.66 Q346.538 1454.1 342.904 1454.1 M342.904 1450.39 Q348.714 1450.39 351.769 1455 Q354.848 1459.58 354.848 1468.33 Q354.848 1477.06 351.769 1481.67 Q348.714 1486.25 342.904 1486.25 Q337.094 1486.25 334.015 1481.67 Q330.959 1477.06 330.959 1468.33 Q330.959 1459.58 334.015 1455 Q337.094 1450.39 342.904 1450.39 Z" fill="#000000" fill-rule="nonzero" fill-opacity="1"></path><path clip-path="url(#clip910)" d="M862.911 1451.02 L885.134 1451.02 L885.134 1453.01 L872.587 1485.58 L867.703 1485.58 L879.509 1454.96 L862.911 1454.96 L862.911 1451.02 Z" fill="#000000" fill-rule="nonzero" fill-opacity="1"></path><path clip-path="url(#clip910)" d="M904.254 1454.1 Q900.643 1454.1 898.814 1457.66 Q897.008 1461.2 897.008 1468.33 Q897.008 1475.44 898.814 1479.01 Q900.643 1482.55 904.254 1482.55 Q907.888 1482.55 909.694 1479.01 Q911.522 1475.44 911.522 1468.33 Q911.522 1461.2 909.694 1457.66 Q907.888 1454.1 904.254 1454.1 M904.254 1450.39 Q910.064 1450.39 913.119 1455 Q916.198 1459.58 916.198 1468.33 Q916.198 1477.06 913.119 1481.67 Q910.064 1486.25 904.254 1486.25 Q898.444 1486.25 895.365 1481.67 Q892.309 1477.06 892.309 1468.33 Q892.309 1459.58 895.365 1455 Q898.444 1450.39 904.254 1450.39 Z" fill="#000000" fill-rule="nonzero" fill-opacity="1"></path><path clip-path="url(#clip910)" d="M1436.07 1469.17 Q1432.73 1469.17 1430.81 1470.95 Q1428.91 1472.73 1428.91 1475.86 Q1428.91 1478.98 1430.81 1480.77 Q1432.73 1482.55 1436.07 1482.55 Q1439.4 1482.55 1441.32 1480.77 Q1443.24 1478.96 1443.24 1475.86 Q1443.24 1472.73 1441.32 1470.95 Q1439.42 1469.17 1436.07 1469.17 M1431.39 1467.18 Q1428.38 1466.44 1426.69 1464.38 Q1425.03 1462.32 1425.03 1459.35 Q1425.03 1455.21 1427.97 1452.8 Q1430.93 1450.39 1436.07 1450.39 Q1441.23 1450.39 1444.17 1452.8 Q1447.11 1455.21 1447.11 1459.35 Q1447.11 1462.32 1445.42 1464.38 Q1443.75 1466.44 1440.77 1467.18 Q1444.15 1467.96 1446.02 1470.26 Q1447.92 1472.55 1447.92 1475.86 Q1447.92 1480.88 1444.84 1483.57 Q1441.78 1486.25 1436.07 1486.25 Q1430.35 1486.25 1427.27 1483.57 Q1424.22 1480.88 1424.22 1475.86 Q1424.22 1472.55 1426.11 1470.26 Q1428.01 1467.96 1431.39 1467.18 M1429.68 1459.79 Q1429.68 1462.48 1431.34 1463.98 Q1433.03 1465.49 1436.07 1465.49 Q1439.08 1465.49 1440.77 1463.98 Q1442.48 1462.48 1442.48 1459.79 Q1442.48 1457.11 1440.77 1455.6 Q1439.08 1454.1 1436.07 1454.1 Q1433.03 1454.1 1431.34 1455.6 Q1429.68 1457.11 1429.68 1459.79 Z" fill="#000000" fill-rule="nonzero" fill-opacity="1"></path><path clip-path="url(#clip910)" d="M1466.23 1454.1 Q1462.62 1454.1 1460.79 1457.66 Q1458.98 1461.2 1458.98 1468.33 Q1458.98 1475.44 1460.79 1479.01 Q1462.62 1482.55 1466.23 1482.55 Q1469.86 1482.55 1471.67 1479.01 Q1473.5 1475.44 1473.5 1468.33 Q1473.5 1461.2 1471.67 1457.66 Q1469.86 1454.1 1466.23 1454.1 M1466.23 1450.39 Q1472.04 1450.39 1475.09 1455 Q1478.17 1459.58 1478.17 1468.33 Q1478.17 1477.06 1475.09 1481.67 Q1472.04 1486.25 1466.23 1486.25 Q1460.42 1486.25 1457.34 1481.67 Q1454.28 1477.06 1454.28 1468.33 Q1454.28 1459.58 1457.34 1455 Q1460.42 1450.39 1466.23 1450.39 Z" fill="#000000" fill-rule="nonzero" fill-opacity="1"></path><path clip-path="url(#clip910)" d="M1987.96 1484.86 L1987.96 1480.6 Q1989.72 1481.44 1991.53 1481.88 Q1993.33 1482.32 1995.07 1482.32 Q1999.7 1482.32 2002.13 1479.21 Q2004.58 1476.09 2004.93 1469.75 Q2003.59 1471.74 2001.53 1472.8 Q1999.47 1473.87 1996.97 1473.87 Q1991.78 1473.87 1988.75 1470.74 Q1985.74 1467.59 1985.74 1462.15 Q1985.74 1456.83 1988.89 1453.61 Q1992.04 1450.39 1997.27 1450.39 Q2003.26 1450.39 2006.41 1455 Q2009.58 1459.58 2009.58 1468.33 Q2009.58 1476.51 2005.69 1481.39 Q2001.83 1486.25 1995.28 1486.25 Q1993.52 1486.25 1991.71 1485.9 Q1989.91 1485.56 1987.96 1484.86 M1997.27 1470.21 Q2000.41 1470.21 2002.24 1468.06 Q2004.1 1465.9 2004.1 1462.15 Q2004.1 1458.43 2002.24 1456.27 Q2000.41 1454.1 1997.27 1454.1 Q1994.12 1454.1 1992.27 1456.27 Q1990.44 1458.43 1990.44 1462.15 Q1990.44 1465.9 1992.27 1468.06 Q1994.12 1470.21 1997.27 1470.21 Z" fill="#000000" fill-rule="nonzero" fill-opacity="1"></path><path clip-path="url(#clip910)" d="M2027.98 1454.1 Q2024.37 1454.1 2022.54 1457.66 Q2020.74 1461.2 2020.74 1468.33 Q2020.74 1475.44 2022.54 1479.01 Q2024.37 1482.55 2027.98 1482.55 Q2031.62 1482.55 2033.42 1479.01 Q2035.25 1475.44 2035.25 1468.33 Q2035.25 1461.2 2033.42 1457.66 Q2031.62 1454.1 2027.98 1454.1 M2027.98 1450.39 Q2033.79 1450.39 2036.85 1455 Q2039.93 1459.58 2039.93 1468.33 Q2039.93 1477.06 2036.85 1481.67 Q2033.79 1486.25 2027.98 1486.25 Q2022.17 1486.25 2019.1 1481.67 Q2016.04 1477.06 2016.04 1468.33 Q2016.04 1459.58 2019.1 1455 Q2022.17 1450.39 2027.98 1450.39 Z" fill="#000000" fill-rule="nonzero" fill-opacity="1"></path><path clip-path="url(#clip910)" d="M712.696 1525.81 L712.696 1543.66 L720.78 1543.66 Q725.268 1543.66 727.719 1541.34 Q730.17 1539.02 730.17 1534.72 Q730.17 1530.45 727.719 1528.13 Q725.268 1525.81 720.78 1525.81 L712.696 1525.81 M706.266 1520.52 L720.78 1520.52 Q728.769 1520.52 732.843 1524.15 Q736.949 1527.75 736.949 1534.72 Q736.949 1541.75 732.843 1545.35 Q728.769 1548.95 720.78 1548.95 L712.696 1548.95 L712.696 1568.04 L706.266 1568.04 L706.266 1520.52 Z" fill="#000000" fill-rule="nonzero" fill-opacity="1"></path><path clip-path="url(#clip910)" d="M773.488 1548.76 L773.488 1551.62 L746.561 1551.62 Q746.943 1557.67 750.19 1560.85 Q753.468 1564 759.293 1564 Q762.667 1564 765.818 1563.17 Q769 1562.35 772.12 1560.69 L772.12 1566.23 Q768.969 1567.57 765.658 1568.27 Q762.348 1568.97 758.943 1568.97 Q750.413 1568.97 745.416 1564 Q740.45 1559.04 740.45 1550.57 Q740.45 1541.82 745.161 1536.69 Q749.903 1531.54 757.924 1531.54 Q765.117 1531.54 769.287 1536.18 Q773.488 1540.8 773.488 1548.76 M767.632 1547.04 Q767.568 1542.23 764.926 1539.37 Q762.316 1536.5 757.988 1536.5 Q753.086 1536.5 750.126 1539.27 Q747.198 1542.04 746.752 1547.07 L767.632 1547.04 Z" fill="#000000" fill-rule="nonzero" fill-opacity="1"></path><path clip-path="url(#clip910)" d="M803.757 1537.87 Q802.771 1537.3 801.593 1537.04 Q800.447 1536.76 799.047 1536.76 Q794.081 1536.76 791.408 1540 Q788.766 1543.22 788.766 1549.27 L788.766 1568.04 L782.878 1568.04 L782.878 1532.4 L788.766 1532.4 L788.766 1537.93 Q790.612 1534.69 793.572 1533.13 Q796.532 1531.54 800.765 1531.54 Q801.37 1531.54 802.102 1531.63 Q802.834 1531.7 803.725 1531.85 L803.757 1537.87 Z" fill="#000000" fill-rule="nonzero" fill-opacity="1"></path><path clip-path="url(#clip910)" d="M834.122 1533.76 L834.122 1539.24 Q831.639 1537.87 829.125 1537.2 Q826.642 1536.5 824.096 1536.5 Q818.398 1536.5 815.247 1540.13 Q812.096 1543.73 812.096 1550.25 Q812.096 1556.78 815.247 1560.4 Q818.398 1564 824.096 1564 Q826.642 1564 829.125 1563.33 Q831.639 1562.63 834.122 1561.26 L834.122 1566.68 Q831.671 1567.82 829.029 1568.39 Q826.419 1568.97 823.459 1568.97 Q815.406 1568.97 810.664 1563.91 Q805.922 1558.85 805.922 1550.25 Q805.922 1541.53 810.696 1536.53 Q815.502 1531.54 823.841 1531.54 Q826.546 1531.54 829.125 1532.11 Q831.703 1532.65 834.122 1533.76 Z" fill="#000000" fill-rule="nonzero" fill-opacity="1"></path><path clip-path="url(#clip910)" d="M874.799 1548.76 L874.799 1551.62 L847.872 1551.62 Q848.254 1557.67 851.5 1560.85 Q854.778 1564 860.603 1564 Q863.977 1564 867.128 1563.17 Q870.311 1562.35 873.43 1560.69 L873.43 1566.23 Q870.279 1567.57 866.969 1568.27 Q863.659 1568.97 860.253 1568.97 Q851.723 1568.97 846.726 1564 Q841.761 1559.04 841.761 1550.57 Q841.761 1541.82 846.471 1536.69 Q851.214 1531.54 859.234 1531.54 Q866.428 1531.54 870.597 1536.18 Q874.799 1540.8 874.799 1548.76 M868.942 1547.04 Q868.878 1542.23 866.237 1539.37 Q863.627 1536.5 859.298 1536.5 Q854.396 1536.5 851.436 1539.27 Q848.508 1542.04 848.063 1547.07 L868.942 1547.04 Z" fill="#000000" fill-rule="nonzero" fill-opacity="1"></path><path clip-path="url(#clip910)" d="M914.043 1546.53 L914.043 1568.04 L908.187 1568.04 L908.187 1546.72 Q908.187 1541.66 906.213 1539.14 Q904.24 1536.63 900.293 1536.63 Q895.551 1536.63 892.813 1539.65 Q890.076 1542.68 890.076 1547.9 L890.076 1568.04 L884.188 1568.04 L884.188 1532.4 L890.076 1532.4 L890.076 1537.93 Q892.177 1534.72 895.01 1533.13 Q897.874 1531.54 901.598 1531.54 Q907.741 1531.54 910.892 1535.36 Q914.043 1539.14 914.043 1546.53 Z" fill="#000000" fill-rule="nonzero" fill-opacity="1"></path><path clip-path="url(#clip910)" d="M931.517 1522.27 L931.517 1532.4 L943.58 1532.4 L943.58 1536.95 L931.517 1536.95 L931.517 1556.3 Q931.517 1560.66 932.695 1561.9 Q933.904 1563.14 937.564 1563.14 L943.58 1563.14 L943.58 1568.04 L937.564 1568.04 Q930.785 1568.04 928.207 1565.53 Q925.629 1562.98 925.629 1556.3 L925.629 1536.95 L921.332 1536.95 L921.332 1532.4 L925.629 1532.4 L925.629 1522.27 L931.517 1522.27 Z" fill="#000000" fill-rule="nonzero" fill-opacity="1"></path><path clip-path="url(#clip910)" d="M967.483 1550.12 Q960.385 1550.12 957.648 1551.75 Q954.911 1553.37 954.911 1557.29 Q954.911 1560.4 956.948 1562.25 Q959.017 1564.07 962.55 1564.07 Q967.42 1564.07 970.348 1560.63 Q973.308 1557.16 973.308 1551.43 L973.308 1550.12 L967.483 1550.12 M979.164 1547.71 L979.164 1568.04 L973.308 1568.04 L973.308 1562.63 Q971.303 1565.88 968.311 1567.44 Q965.319 1568.97 960.99 1568.97 Q955.516 1568.97 952.269 1565.91 Q949.055 1562.82 949.055 1557.67 Q949.055 1551.65 953.065 1548.6 Q957.107 1545.54 965.096 1545.54 L973.308 1545.54 L973.308 1544.97 Q973.308 1540.93 970.634 1538.73 Q967.992 1536.5 963.186 1536.5 Q960.131 1536.5 957.234 1537.23 Q954.338 1537.97 951.664 1539.43 L951.664 1534.02 Q954.879 1532.78 957.903 1532.17 Q960.927 1531.54 963.791 1531.54 Q971.525 1531.54 975.345 1535.55 Q979.164 1539.56 979.164 1547.71 Z" fill="#000000" fill-rule="nonzero" fill-opacity="1"></path><path clip-path="url(#clip910)" d="M1014.68 1549.81 Q1014.68 1543.44 1012.04 1539.94 Q1009.43 1536.44 1004.69 1536.44 Q999.98 1536.44 997.338 1539.94 Q994.728 1543.44 994.728 1549.81 Q994.728 1556.14 997.338 1559.64 Q999.98 1563.14 1004.69 1563.14 Q1009.43 1563.14 1012.04 1559.64 Q1014.68 1556.14 1014.68 1549.81 M1020.54 1563.62 Q1020.54 1572.72 1016.5 1577.15 Q1012.46 1581.6 1004.12 1581.6 Q1001.03 1581.6 998.293 1581.13 Q995.556 1580.68 992.978 1579.72 L992.978 1574.03 Q995.556 1575.43 998.07 1576.1 Q1000.58 1576.76 1003.19 1576.76 Q1008.96 1576.76 1011.82 1573.74 Q1014.68 1570.75 1014.68 1564.67 L1014.68 1561.77 Q1012.87 1564.92 1010.04 1566.48 Q1007.21 1568.04 1003.26 1568.04 Q996.702 1568.04 992.691 1563.05 Q988.681 1558.05 988.681 1549.81 Q988.681 1541.53 992.691 1536.53 Q996.702 1531.54 1003.26 1531.54 Q1007.21 1531.54 1010.04 1533.1 Q1012.87 1534.66 1014.68 1537.81 L1014.68 1532.4 L1020.54 1532.4 L1020.54 1563.62 Z" fill="#000000" fill-rule="nonzero" fill-opacity="1"></path><path clip-path="url(#clip910)" d="M1063.1 1548.76 L1063.1 1551.62 L1036.17 1551.62 Q1036.55 1557.67 1039.8 1560.85 Q1043.08 1564 1048.9 1564 Q1052.27 1564 1055.43 1563.17 Q1058.61 1562.35 1061.73 1560.69 L1061.73 1566.23 Q1058.58 1567.57 1055.27 1568.27 Q1051.96 1568.97 1048.55 1568.97 Q1040.02 1568.97 1035.02 1564 Q1030.06 1559.04 1030.06 1550.57 Q1030.06 1541.82 1034.77 1536.69 Q1039.51 1531.54 1047.53 1531.54 Q1054.73 1531.54 1058.89 1536.18 Q1063.1 1540.8 1063.1 1548.76 M1057.24 1547.04 Q1057.18 1542.23 1054.53 1539.37 Q1051.92 1536.5 1047.6 1536.5 Q1042.69 1536.5 1039.73 1539.27 Q1036.81 1542.04 1036.36 1547.07 L1057.24 1547.04 Z" fill="#000000" fill-rule="nonzero" fill-opacity="1"></path><path clip-path="url(#clip910)" d="M1100.11 1525.81 L1100.11 1562.76 L1107.88 1562.76 Q1117.71 1562.76 1122.27 1558.3 Q1126.85 1553.85 1126.85 1544.24 Q1126.85 1534.69 1122.27 1530.26 Q1117.71 1525.81 1107.88 1525.81 L1100.11 1525.81 M1093.68 1520.52 L1106.89 1520.52 Q1120.71 1520.52 1127.17 1526.28 Q1133.63 1532.01 1133.63 1544.24 Q1133.63 1556.52 1127.14 1562.28 Q1120.64 1568.04 1106.89 1568.04 L1093.68 1568.04 L1093.68 1520.52 Z" fill="#000000" fill-rule="nonzero" fill-opacity="1"></path><path clip-path="url(#clip910)" d="M1174.11 1548.76 L1174.11 1551.62 L1147.19 1551.62 Q1147.57 1557.67 1150.82 1560.85 Q1154.09 1564 1159.92 1564 Q1163.29 1564 1166.44 1563.17 Q1169.63 1562.35 1172.75 1560.69 L1172.75 1566.23 Q1169.59 1567.57 1166.28 1568.27 Q1162.97 1568.97 1159.57 1568.97 Q1151.04 1568.97 1146.04 1564 Q1141.08 1559.04 1141.08 1550.57 Q1141.08 1541.82 1145.79 1536.69 Q1150.53 1531.54 1158.55 1531.54 Q1165.74 1531.54 1169.91 1536.18 Q1174.11 1540.8 1174.11 1548.76 M1168.26 1547.04 Q1168.19 1542.23 1165.55 1539.37 Q1162.94 1536.5 1158.61 1536.5 Q1153.71 1536.5 1150.75 1539.27 Q1147.82 1542.04 1147.38 1547.07 L1168.26 1547.04 Z" fill="#000000" fill-rule="nonzero" fill-opacity="1"></path><path clip-path="url(#clip910)" d="M1209.38 1533.76 L1209.38 1539.24 Q1206.9 1537.87 1204.38 1537.2 Q1201.9 1536.5 1199.35 1536.5 Q1193.66 1536.5 1190.51 1540.13 Q1187.35 1543.73 1187.35 1550.25 Q1187.35 1556.78 1190.51 1560.4 Q1193.66 1564 1199.35 1564 Q1201.9 1564 1204.38 1563.33 Q1206.9 1562.63 1209.38 1561.26 L1209.38 1566.68 Q1206.93 1567.82 1204.29 1568.39 Q1201.68 1568.97 1198.72 1568.97 Q1190.66 1568.97 1185.92 1563.91 Q1181.18 1558.85 1181.18 1550.25 Q1181.18 1541.53 1185.95 1536.53 Q1190.76 1531.54 1199.1 1531.54 Q1201.8 1531.54 1204.38 1532.11 Q1206.96 1532.65 1209.38 1533.76 Z" fill="#000000" fill-rule="nonzero" fill-opacity="1"></path><path clip-path="url(#clip910)" d="M1240.22 1537.87 Q1239.24 1537.3 1238.06 1537.04 Q1236.91 1536.76 1235.51 1536.76 Q1230.55 1536.76 1227.87 1540 Q1225.23 1543.22 1225.23 1549.27 L1225.23 1568.04 L1219.34 1568.04 L1219.34 1532.4 L1225.23 1532.4 L1225.23 1537.93 Q1227.08 1534.69 1230.04 1533.13 Q1233 1531.54 1237.23 1531.54 Q1237.83 1531.54 1238.57 1531.63 Q1239.3 1531.7 1240.19 1531.85 L1240.22 1537.87 Z" fill="#000000" fill-rule="nonzero" fill-opacity="1"></path><path clip-path="url(#clip910)" d="M1275.42 1548.76 L1275.42 1551.62 L1248.5 1551.62 Q1248.88 1557.67 1252.13 1560.85 Q1255.4 1564 1261.23 1564 Q1264.6 1564 1267.75 1563.17 Q1270.94 1562.35 1274.06 1560.69 L1274.06 1566.23 Q1270.9 1567.57 1267.59 1568.27 Q1264.28 1568.97 1260.88 1568.97 Q1252.35 1568.97 1247.35 1564 Q1242.39 1559.04 1242.39 1550.57 Q1242.39 1541.82 1247.1 1536.69 Q1251.84 1531.54 1259.86 1531.54 Q1267.05 1531.54 1271.22 1536.18 Q1275.42 1540.8 1275.42 1548.76 M1269.57 1547.04 Q1269.5 1542.23 1266.86 1539.37 Q1264.25 1536.5 1259.92 1536.5 Q1255.02 1536.5 1252.06 1539.27 Q1249.13 1542.04 1248.69 1547.07 L1269.57 1547.04 Z" fill="#000000" fill-rule="nonzero" fill-opacity="1"></path><path clip-path="url(#clip910)" d="M1301.24 1550.12 Q1294.14 1550.12 1291.4 1551.75 Q1288.66 1553.37 1288.66 1557.29 Q1288.66 1560.4 1290.7 1562.25 Q1292.77 1564.07 1296.3 1564.07 Q1301.17 1564.07 1304.1 1560.63 Q1307.06 1557.16 1307.06 1551.43 L1307.06 1550.12 L1301.24 1550.12 M1312.92 1547.71 L1312.92 1568.04 L1307.06 1568.04 L1307.06 1562.63 Q1305.06 1565.88 1302.06 1567.44 Q1299.07 1568.97 1294.74 1568.97 Q1289.27 1568.97 1286.02 1565.91 Q1282.81 1562.82 1282.81 1557.67 Q1282.81 1551.65 1286.82 1548.6 Q1290.86 1545.54 1298.85 1545.54 L1307.06 1545.54 L1307.06 1544.97 Q1307.06 1540.93 1304.39 1538.73 Q1301.75 1536.5 1296.94 1536.5 Q1293.88 1536.5 1290.99 1537.23 Q1288.09 1537.97 1285.42 1539.43 L1285.42 1534.02 Q1288.63 1532.78 1291.66 1532.17 Q1294.68 1531.54 1297.55 1531.54 Q1305.28 1531.54 1309.1 1535.55 Q1312.92 1539.56 1312.92 1547.71 Z" fill="#000000" fill-rule="nonzero" fill-opacity="1"></path><path clip-path="url(#clip910)" d="M1347.71 1533.45 L1347.71 1538.98 Q1345.22 1537.71 1342.55 1537.07 Q1339.88 1536.44 1337.01 1536.44 Q1332.65 1536.44 1330.46 1537.77 Q1328.29 1539.11 1328.29 1541.79 Q1328.29 1543.82 1329.85 1545 Q1331.41 1546.15 1336.12 1547.2 L1338.13 1547.64 Q1344.36 1548.98 1346.97 1551.43 Q1349.62 1553.85 1349.62 1558.21 Q1349.62 1563.17 1345.67 1566.07 Q1341.75 1568.97 1334.88 1568.97 Q1332.02 1568.97 1328.9 1568.39 Q1325.81 1567.85 1322.37 1566.74 L1322.37 1560.69 Q1325.62 1562.38 1328.77 1563.24 Q1331.92 1564.07 1335.01 1564.07 Q1339.15 1564.07 1341.37 1562.66 Q1343.6 1561.23 1343.6 1558.65 Q1343.6 1556.27 1341.98 1554.99 Q1340.39 1553.72 1334.94 1552.54 L1332.91 1552.07 Q1327.46 1550.92 1325.04 1548.56 Q1322.63 1546.18 1322.63 1542.04 Q1322.63 1537.01 1326.19 1534.27 Q1329.76 1531.54 1336.31 1531.54 Q1339.56 1531.54 1342.42 1532.01 Q1345.29 1532.49 1347.71 1533.45 Z" fill="#000000" fill-rule="nonzero" fill-opacity="1"></path><path clip-path="url(#clip910)" d="M1389.43 1548.76 L1389.43 1551.62 L1362.51 1551.62 Q1362.89 1557.67 1366.14 1560.85 Q1369.41 1564 1375.24 1564 Q1378.61 1564 1381.76 1563.17 Q1384.95 1562.35 1388.07 1560.69 L1388.07 1566.23 Q1384.91 1567.57 1381.6 1568.27 Q1378.29 1568.97 1374.89 1568.97 Q1366.36 1568.97 1361.36 1564 Q1356.4 1559.04 1356.4 1550.57 Q1356.4 1541.82 1361.11 1536.69 Q1365.85 1531.54 1373.87 1531.54 Q1381.06 1531.54 1385.23 1536.18 Q1389.43 1540.8 1389.43 1548.76 M1383.58 1547.04 Q1383.51 1542.23 1380.87 1539.37 Q1378.26 1536.5 1373.93 1536.5 Q1369.03 1536.5 1366.07 1539.27 Q1363.14 1542.04 1362.7 1547.07 L1383.58 1547.04 Z" fill="#000000" fill-rule="nonzero" fill-opacity="1"></path><path clip-path="url(#clip910)" d="M1419.77 1532.4 L1425.62 1532.4 L1425.62 1568.04 L1419.77 1568.04 L1419.77 1532.4 M1419.77 1518.52 L1425.62 1518.52 L1425.62 1525.93 L1419.77 1525.93 L1419.77 1518.52 Z" fill="#000000" fill-rule="nonzero" fill-opacity="1"></path><path clip-path="url(#clip910)" d="M1467.51 1546.53 L1467.51 1568.04 L1461.65 1568.04 L1461.65 1546.72 Q1461.65 1541.66 1459.68 1539.14 Q1457.71 1536.63 1453.76 1536.63 Q1449.02 1536.63 1446.28 1539.65 Q1443.54 1542.68 1443.54 1547.9 L1443.54 1568.04 L1437.65 1568.04 L1437.65 1532.4 L1443.54 1532.4 L1443.54 1537.93 Q1445.64 1534.72 1448.48 1533.13 Q1451.34 1531.54 1455.06 1531.54 Q1461.21 1531.54 1464.36 1535.36 Q1467.51 1539.14 1467.51 1546.53 Z" fill="#000000" fill-rule="nonzero" fill-opacity="1"></path><path clip-path="url(#clip910)" d="M1522.7 1545.76 Q1524.77 1546.46 1526.71 1548.76 Q1528.68 1551.05 1530.66 1555.06 L1537.18 1568.04 L1530.28 1568.04 L1524.2 1555.85 Q1521.84 1551.08 1519.61 1549.52 Q1517.42 1547.96 1513.6 1547.96 L1506.59 1547.96 L1506.59 1568.04 L1500.17 1568.04 L1500.17 1520.52 L1514.68 1520.52 Q1522.83 1520.52 1526.84 1523.93 Q1530.85 1527.34 1530.85 1534.21 Q1530.85 1538.7 1528.75 1541.66 Q1526.68 1544.62 1522.7 1545.76 M1506.59 1525.81 L1506.59 1542.68 L1514.68 1542.68 Q1519.33 1542.68 1521.68 1540.54 Q1524.07 1538.38 1524.07 1534.21 Q1524.07 1530.04 1521.68 1527.94 Q1519.33 1525.81 1514.68 1525.81 L1506.59 1525.81 Z" fill="#000000" fill-rule="nonzero" fill-opacity="1"></path><path clip-path="url(#clip910)" d="M1541.67 1553.98 L1541.67 1532.4 L1547.53 1532.4 L1547.53 1553.75 Q1547.53 1558.81 1549.5 1561.36 Q1551.47 1563.87 1555.42 1563.87 Q1560.16 1563.87 1562.9 1560.85 Q1565.67 1557.83 1565.67 1552.61 L1565.67 1532.4 L1571.53 1532.4 L1571.53 1568.04 L1565.67 1568.04 L1565.67 1562.57 Q1563.54 1565.82 1560.7 1567.41 Q1557.9 1568.97 1554.18 1568.97 Q1548.04 1568.97 1544.85 1565.15 Q1541.67 1561.33 1541.67 1553.98 M1556.41 1531.54 L1556.41 1531.54 Z" fill="#000000" fill-rule="nonzero" fill-opacity="1"></path><path clip-path="url(#clip910)" d="M1613.22 1546.53 L1613.22 1568.04 L1607.36 1568.04 L1607.36 1546.72 Q1607.36 1541.66 1605.39 1539.14 Q1603.42 1536.63 1599.47 1536.63 Q1594.73 1536.63 1591.99 1539.65 Q1589.25 1542.68 1589.25 1547.9 L1589.25 1568.04 L1583.37 1568.04 L1583.37 1532.4 L1589.25 1532.4 L1589.25 1537.93 Q1591.35 1534.72 1594.19 1533.13 Q1597.05 1531.54 1600.78 1531.54 Q1606.92 1531.54 1610.07 1535.36 Q1613.22 1539.14 1613.22 1546.53 Z" fill="#000000" fill-rule="nonzero" fill-opacity="1"></path><path clip-path="url(#clip910)" d="M1630.69 1522.27 L1630.69 1532.4 L1642.76 1532.4 L1642.76 1536.95 L1630.69 1536.95 L1630.69 1556.3 Q1630.69 1560.66 1631.87 1561.9 Q1633.08 1563.14 1636.74 1563.14 L1642.76 1563.14 L1642.76 1568.04 L1636.74 1568.04 Q1629.96 1568.04 1627.38 1565.53 Q1624.81 1562.98 1624.81 1556.3 L1624.81 1536.95 L1620.51 1536.95 L1620.51 1532.4 L1624.81 1532.4 L1624.81 1522.27 L1630.69 1522.27 Z" fill="#000000" fill-rule="nonzero" fill-opacity="1"></path><path clip-path="url(#clip910)" d="M1650.46 1532.4 L1656.32 1532.4 L1656.32 1568.04 L1650.46 1568.04 L1650.46 1532.4 M1650.46 1518.52 L1656.32 1518.52 L1656.32 1525.93 L1650.46 1525.93 L1650.46 1518.52 Z" fill="#000000" fill-rule="nonzero" fill-opacity="1"></path><path clip-path="url(#clip910)" d="M1696.32 1539.24 Q1698.52 1535.29 1701.58 1533.41 Q1704.63 1531.54 1708.77 1531.54 Q1714.34 1531.54 1717.36 1535.45 Q1720.39 1539.33 1720.39 1546.53 L1720.39 1568.04 L1714.5 1568.04 L1714.5 1546.72 Q1714.5 1541.59 1712.68 1539.11 Q1710.87 1536.63 1707.15 1536.63 Q1702.6 1536.63 1699.95 1539.65 Q1697.31 1542.68 1697.31 1547.9 L1697.31 1568.04 L1691.42 1568.04 L1691.42 1546.72 Q1691.42 1541.56 1689.61 1539.11 Q1687.79 1536.63 1684.01 1536.63 Q1679.52 1536.63 1676.88 1539.68 Q1674.24 1542.71 1674.24 1547.9 L1674.24 1568.04 L1668.35 1568.04 L1668.35 1532.4 L1674.24 1532.4 L1674.24 1537.93 Q1676.24 1534.66 1679.04 1533.1 Q1681.84 1531.54 1685.69 1531.54 Q1689.58 1531.54 1692.28 1533.51 Q1695.02 1535.48 1696.32 1539.24 Z" fill="#000000" fill-rule="nonzero" fill-opacity="1"></path><path clip-path="url(#clip910)" d="M1762.56 1548.76 L1762.56 1551.62 L1735.63 1551.62 Q1736.01 1557.67 1739.26 1560.85 Q1742.54 1564 1748.36 1564 Q1751.74 1564 1754.89 1563.17 Q1758.07 1562.35 1761.19 1560.69 L1761.19 1566.23 Q1758.04 1567.57 1754.73 1568.27 Q1751.42 1568.97 1748.01 1568.97 Q1739.48 1568.97 1734.49 1564 Q1729.52 1559.04 1729.52 1550.57 Q1729.52 1541.82 1734.23 1536.69 Q1738.98 1531.54 1747 1531.54 Q1754.19 1531.54 1758.36 1536.18 Q1762.56 1540.8 1762.56 1548.76 M1756.7 1547.04 Q1756.64 1542.23 1754 1539.37 Q1751.39 1536.5 1747.06 1536.5 Q1742.16 1536.5 1739.2 1539.27 Q1736.27 1542.04 1735.82 1547.07 L1756.7 1547.04 Z" fill="#000000" fill-rule="nonzero" fill-opacity="1"></path><path clip-path="url(#clip910)" d="M1806.96 1518.58 Q1802.7 1525.9 1800.63 1533.06 Q1798.56 1540.23 1798.56 1547.58 Q1798.56 1554.93 1800.63 1562.16 Q1802.73 1569.35 1806.96 1576.64 L1801.87 1576.64 Q1797.09 1569.16 1794.71 1561.93 Q1792.35 1554.71 1792.35 1547.58 Q1792.35 1540.48 1794.71 1533.29 Q1797.06 1526.09 1801.87 1518.58 L1806.96 1518.58 Z" fill="#000000" fill-rule="nonzero" fill-opacity="1"></path><path clip-path="url(#clip910)" d="M1859.57 1547.13 Q1856.8 1547.13 1855.21 1549.49 Q1853.65 1551.84 1853.65 1556.04 Q1853.65 1560.18 1855.21 1562.57 Q1856.8 1564.92 1859.57 1564.92 Q1862.28 1564.92 1863.84 1562.57 Q1865.43 1560.18 1865.43 1556.04 Q1865.43 1551.87 1863.84 1549.52 Q1862.28 1547.13 1859.57 1547.13 M1859.57 1543.09 Q1864.6 1543.09 1867.56 1546.59 Q1870.52 1550.09 1870.52 1556.04 Q1870.52 1562 1867.53 1565.5 Q1864.57 1568.97 1859.57 1568.97 Q1854.48 1568.97 1851.52 1565.5 Q1848.56 1562 1848.56 1556.04 Q1848.56 1550.06 1851.52 1546.59 Q1854.51 1543.09 1859.57 1543.09 M1826.73 1523.71 Q1823.99 1523.71 1822.4 1526.09 Q1820.84 1528.45 1820.84 1532.59 Q1820.84 1536.79 1822.4 1539.14 Q1823.96 1541.5 1826.73 1541.5 Q1829.5 1541.5 1831.05 1539.14 Q1832.65 1536.79 1832.65 1532.59 Q1832.65 1528.48 1831.05 1526.09 Q1829.46 1523.71 1826.73 1523.71 M1855.47 1519.66 L1860.56 1519.66 L1830.83 1568.97 L1825.74 1568.97 L1855.47 1519.66 M1826.73 1519.66 Q1831.76 1519.66 1834.75 1523.17 Q1837.74 1526.63 1837.74 1532.59 Q1837.74 1538.6 1834.75 1542.07 Q1831.79 1545.54 1826.73 1545.54 Q1821.67 1545.54 1818.71 1542.07 Q1815.78 1538.57 1815.78 1532.59 Q1815.78 1526.67 1818.74 1523.17 Q1821.7 1519.66 1826.73 1519.66 Z" fill="#000000" fill-rule="nonzero" fill-opacity="1"></path><path clip-path="url(#clip910)" d="M1879.34 1518.58 L1884.43 1518.58 Q1889.21 1526.09 1891.56 1533.29 Q1893.95 1540.48 1893.95 1547.58 Q1893.95 1554.71 1891.56 1561.93 Q1889.21 1569.16 1884.43 1576.64 L1879.34 1576.64 Q1883.57 1569.35 1885.64 1562.16 Q1887.74 1554.93 1887.74 1547.58 Q1887.74 1540.23 1885.64 1533.06 Q1883.57 1525.9 1879.34 1518.58 Z" fill="#000000" fill-rule="nonzero" fill-opacity="1"></path><polyline clip-path="url(#clip910)" style="stroke:#000000; stroke-linecap:round; stroke-linejoin:round; stroke-width:4; stroke-opacity:1; fill:none" points="247.459,1423.18 247.459,123.472 "></polyline>
<polyline clip-path="url(#clip910)" style="stroke:#000000; stroke-linecap:round; stroke-linejoin:round; stroke-width:4; stroke-opacity:1; fill:none" points="247.459,1413.31 266.356,1413.31 "></polyline>
<polyline clip-path="url(#clip910)" style="stroke:#000000; stroke-linecap:round; stroke-linejoin:round; stroke-width:4; stroke-opacity:1; fill:none" points="247.459,1107.8 266.356,1107.8 "></polyline>
<polyline clip-path="url(#clip910)" style="stroke:#000000; stroke-linecap:round; stroke-linejoin:round; stroke-width:4; stroke-opacity:1; fill:none" points="247.459,802.291 266.356,802.291 "></polyline>
<polyline clip-path="url(#clip910)" style="stroke:#000000; stroke-linecap:round; stroke-linejoin:round; stroke-width:4; stroke-opacity:1; fill:none" points="247.459,496.784 266.356,496.784 "></polyline>
<polyline clip-path="url(#clip910)" style="stroke:#000000; stroke-linecap:round; stroke-linejoin:round; stroke-width:4; stroke-opacity:1; fill:none" points="247.459,191.276 266.356,191.276 "></polyline>
<path clip-path="url(#clip910)" d="M154.283 1399.11 Q150.672 1399.11 148.843 1402.67 Q147.038 1406.21 147.038 1413.34 Q147.038 1420.45 148.843 1424.01 Q150.672 1427.55 154.283 1427.55 Q157.917 1427.55 159.723 1424.01 Q161.552 1420.45 161.552 1413.34 Q161.552 1406.21 159.723 1402.67 Q157.917 1399.11 154.283 1399.11 M154.283 1395.4 Q160.093 1395.4 163.149 1400.01 Q166.227 1404.59 166.227 1413.34 Q166.227 1422.07 163.149 1426.67 Q160.093 1431.26 154.283 1431.26 Q148.473 1431.26 145.394 1426.67 Q142.339 1422.07 142.339 1413.34 Q142.339 1404.59 145.394 1400.01 Q148.473 1395.4 154.283 1395.4 Z" fill="#000000" fill-rule="nonzero" fill-opacity="1"></path><path clip-path="url(#clip910)" d="M174.445 1424.71 L179.329 1424.71 L179.329 1430.59 L174.445 1430.59 L174.445 1424.71 Z" fill="#000000" fill-rule="nonzero" fill-opacity="1"></path><path clip-path="url(#clip910)" d="M199.514 1399.11 Q195.903 1399.11 194.075 1402.67 Q192.269 1406.21 192.269 1413.34 Q192.269 1420.45 194.075 1424.01 Q195.903 1427.55 199.514 1427.55 Q203.149 1427.55 204.954 1424.01 Q206.783 1420.45 206.783 1413.34 Q206.783 1406.21 204.954 1402.67 Q203.149 1399.11 199.514 1399.11 M199.514 1395.4 Q205.324 1395.4 208.38 1400.01 Q211.459 1404.59 211.459 1413.34 Q211.459 1422.07 208.38 1426.67 Q205.324 1431.26 199.514 1431.26 Q193.704 1431.26 190.625 1426.67 Q187.57 1422.07 187.57 1413.34 Q187.57 1404.59 190.625 1400.01 Q193.704 1395.4 199.514 1395.4 Z" fill="#000000" fill-rule="nonzero" fill-opacity="1"></path><path clip-path="url(#clip910)" d="M149.306 1121.14 L165.626 1121.14 L165.626 1125.08 L143.681 1125.08 L143.681 1121.14 Q146.343 1118.39 150.927 1113.76 Q155.533 1109.11 156.714 1107.76 Q158.959 1105.24 159.839 1103.51 Q160.741 1101.75 160.741 1100.06 Q160.741 1097.3 158.797 1095.57 Q156.876 1093.83 153.774 1093.83 Q151.575 1093.83 149.121 1094.59 Q146.691 1095.36 143.913 1096.91 L143.913 1092.19 Q146.737 1091.05 149.191 1090.47 Q151.644 1089.89 153.681 1089.89 Q159.052 1089.89 162.246 1092.58 Q165.44 1095.26 165.44 1099.76 Q165.44 1101.88 164.63 1103.81 Q163.843 1105.7 161.737 1108.3 Q161.158 1108.97 158.056 1112.19 Q154.954 1115.38 149.306 1121.14 Z" fill="#000000" fill-rule="nonzero" fill-opacity="1"></path><path clip-path="url(#clip910)" d="M175.44 1119.2 L180.325 1119.2 L180.325 1125.08 L175.44 1125.08 L175.44 1119.2 Z" fill="#000000" fill-rule="nonzero" fill-opacity="1"></path><path clip-path="url(#clip910)" d="M190.556 1090.52 L208.912 1090.52 L208.912 1094.45 L194.838 1094.45 L194.838 1102.93 Q195.857 1102.58 196.875 1102.42 Q197.894 1102.23 198.912 1102.23 Q204.699 1102.23 208.079 1105.4 Q211.459 1108.57 211.459 1113.99 Q211.459 1119.57 207.987 1122.67 Q204.514 1125.75 198.195 1125.75 Q196.019 1125.75 193.75 1125.38 Q191.505 1125.01 189.098 1124.27 L189.098 1119.57 Q191.181 1120.7 193.403 1121.26 Q195.625 1121.82 198.102 1121.82 Q202.107 1121.82 204.445 1119.71 Q206.783 1117.6 206.783 1113.99 Q206.783 1110.38 204.445 1108.27 Q202.107 1106.17 198.102 1106.17 Q196.227 1106.17 194.352 1106.58 Q192.5 1107 190.556 1107.88 L190.556 1090.52 Z" fill="#000000" fill-rule="nonzero" fill-opacity="1"></path><path clip-path="url(#clip910)" d="M144.329 785.011 L162.686 785.011 L162.686 788.946 L148.612 788.946 L148.612 797.419 Q149.63 797.071 150.649 796.909 Q151.667 796.724 152.686 796.724 Q158.473 796.724 161.852 799.895 Q165.232 803.067 165.232 808.483 Q165.232 814.062 161.76 817.164 Q158.288 820.243 151.968 820.243 Q149.792 820.243 147.524 819.872 Q145.279 819.502 142.871 818.761 L142.871 814.062 Q144.954 815.196 147.177 815.752 Q149.399 816.307 151.876 816.307 Q155.88 816.307 158.218 814.201 Q160.556 812.094 160.556 808.483 Q160.556 804.872 158.218 802.766 Q155.88 800.659 151.876 800.659 Q150.001 800.659 148.126 801.076 Q146.274 801.493 144.329 802.372 L144.329 785.011 Z" fill="#000000" fill-rule="nonzero" fill-opacity="1"></path><path clip-path="url(#clip910)" d="M174.445 813.692 L179.329 813.692 L179.329 819.571 L174.445 819.571 L174.445 813.692 Z" fill="#000000" fill-rule="nonzero" fill-opacity="1"></path><path clip-path="url(#clip910)" d="M199.514 788.09 Q195.903 788.09 194.075 791.655 Q192.269 795.196 192.269 802.326 Q192.269 809.432 194.075 812.997 Q195.903 816.539 199.514 816.539 Q203.149 816.539 204.954 812.997 Q206.783 809.432 206.783 802.326 Q206.783 795.196 204.954 791.655 Q203.149 788.09 199.514 788.09 M199.514 784.386 Q205.324 784.386 208.38 788.993 Q211.459 793.576 211.459 802.326 Q211.459 811.053 208.38 815.659 Q205.324 820.243 199.514 820.243 Q193.704 820.243 190.625 815.659 Q187.57 811.053 187.57 802.326 Q187.57 793.576 190.625 788.993 Q193.704 784.386 199.514 784.386 Z" fill="#000000" fill-rule="nonzero" fill-opacity="1"></path><path clip-path="url(#clip910)" d="M144.098 479.504 L166.32 479.504 L166.32 481.494 L153.774 514.064 L148.89 514.064 L160.695 483.439 L144.098 483.439 L144.098 479.504 Z" fill="#000000" fill-rule="nonzero" fill-opacity="1"></path><path clip-path="url(#clip910)" d="M175.44 508.184 L180.325 508.184 L180.325 514.064 L175.44 514.064 L175.44 508.184 Z" fill="#000000" fill-rule="nonzero" fill-opacity="1"></path><path clip-path="url(#clip910)" d="M190.556 479.504 L208.912 479.504 L208.912 483.439 L194.838 483.439 L194.838 491.911 Q195.857 491.564 196.875 491.402 Q197.894 491.216 198.912 491.216 Q204.699 491.216 208.079 494.388 Q211.459 497.559 211.459 502.976 Q211.459 508.554 207.987 511.656 Q204.514 514.735 198.195 514.735 Q196.019 514.735 193.75 514.364 Q191.505 513.994 189.098 513.253 L189.098 508.554 Q191.181 509.689 193.403 510.244 Q195.625 510.8 198.102 510.8 Q202.107 510.8 204.445 508.693 Q206.783 506.587 206.783 502.976 Q206.783 499.365 204.445 497.258 Q202.107 495.152 198.102 495.152 Q196.227 495.152 194.352 495.568 Q192.5 495.985 190.556 496.865 L190.556 479.504 Z" fill="#000000" fill-rule="nonzero" fill-opacity="1"></path><path clip-path="url(#clip910)" d="M114.931 204.621 L122.57 204.621 L122.57 178.255 L114.26 179.922 L114.26 175.663 L122.524 173.996 L127.2 173.996 L127.2 204.621 L134.839 204.621 L134.839 208.556 L114.931 208.556 L114.931 204.621 Z" fill="#000000" fill-rule="nonzero" fill-opacity="1"></path><path clip-path="url(#clip910)" d="M154.283 177.075 Q150.672 177.075 148.843 180.639 Q147.038 184.181 147.038 191.311 Q147.038 198.417 148.843 201.982 Q150.672 205.523 154.283 205.523 Q157.917 205.523 159.723 201.982 Q161.552 198.417 161.552 191.311 Q161.552 184.181 159.723 180.639 Q157.917 177.075 154.283 177.075 M154.283 173.371 Q160.093 173.371 163.149 177.977 Q166.227 182.561 166.227 191.311 Q166.227 200.037 163.149 204.644 Q160.093 209.227 154.283 209.227 Q148.473 209.227 145.394 204.644 Q142.339 200.037 142.339 191.311 Q142.339 182.561 145.394 177.977 Q148.473 173.371 154.283 173.371 Z" fill="#000000" fill-rule="nonzero" fill-opacity="1"></path><path clip-path="url(#clip910)" d="M174.445 202.676 L179.329 202.676 L179.329 208.556 L174.445 208.556 L174.445 202.676 Z" fill="#000000" fill-rule="nonzero" fill-opacity="1"></path><path clip-path="url(#clip910)" d="M199.514 177.075 Q195.903 177.075 194.075 180.639 Q192.269 184.181 192.269 191.311 Q192.269 198.417 194.075 201.982 Q195.903 205.523 199.514 205.523 Q203.149 205.523 204.954 201.982 Q206.783 198.417 206.783 191.311 Q206.783 184.181 204.954 180.639 Q203.149 177.075 199.514 177.075 M199.514 173.371 Q205.324 173.371 208.38 177.977 Q211.459 182.561 211.459 191.311 Q211.459 200.037 208.38 204.644 Q205.324 209.227 199.514 209.227 Q193.704 209.227 190.625 204.644 Q187.57 200.037 187.57 191.311 Q187.57 182.561 190.625 177.977 Q193.704 173.371 199.514 173.371 Z" fill="#000000" fill-rule="nonzero" fill-opacity="1"></path><path clip-path="url(#clip910)" d="M21.7677 1512.86 L39.6235 1512.86 L39.6235 1504.78 Q39.6235 1500.29 37.3 1497.84 Q34.9765 1495.39 30.6797 1495.39 Q26.4147 1495.39 24.0912 1497.84 Q21.7677 1500.29 21.7677 1504.78 L21.7677 1512.86 M16.4842 1519.29 L16.4842 1504.78 Q16.4842 1496.79 20.1126 1492.71 Q23.7092 1488.61 30.6797 1488.61 Q37.7138 1488.61 41.3104 1492.71 Q44.907 1496.79 44.907 1504.78 L44.907 1512.86 L64.0042 1512.86 L64.0042 1519.29 L16.4842 1519.29 Z" fill="#000000" fill-rule="nonzero" fill-opacity="1"></path><path clip-path="url(#clip910)" d="M44.7161 1452.07 L47.5806 1452.07 L47.5806 1479 Q53.6281 1478.61 56.8109 1475.37 Q59.9619 1472.09 59.9619 1466.26 Q59.9619 1462.89 59.1344 1459.74 Q58.3069 1456.56 56.6518 1453.44 L62.1899 1453.44 Q63.5267 1456.59 64.227 1459.9 Q64.9272 1463.21 64.9272 1466.62 Q64.9272 1475.15 59.9619 1480.14 Q54.9967 1485.11 46.5303 1485.11 Q37.7774 1485.11 32.6531 1480.4 Q27.4968 1475.65 27.4968 1467.63 Q27.4968 1460.44 32.1438 1456.27 Q36.7589 1452.07 44.7161 1452.07 M42.9973 1457.93 Q38.1912 1457.99 35.3266 1460.63 Q32.4621 1463.24 32.4621 1467.57 Q32.4621 1472.47 35.2312 1475.43 Q38.0002 1478.36 43.0292 1478.81 L42.9973 1457.93 Z" fill="#000000" fill-rule="nonzero" fill-opacity="1"></path><path clip-path="url(#clip910)" d="M33.8307 1421.8 Q33.2578 1422.79 33.0032 1423.96 Q32.7167 1425.11 32.7167 1426.51 Q32.7167 1431.48 35.9632 1434.15 Q39.1779 1436.79 45.2253 1436.79 L64.0042 1436.79 L64.0042 1442.68 L28.3562 1442.68 L28.3562 1436.79 L33.8944 1436.79 Q30.6479 1434.95 29.0883 1431.99 Q27.4968 1429.03 27.4968 1424.79 Q27.4968 1424.19 27.5923 1423.46 Q27.656 1422.72 27.8151 1421.83 L33.8307 1421.8 Z" fill="#000000" fill-rule="nonzero" fill-opacity="1"></path><path clip-path="url(#clip910)" d="M29.7248 1391.44 L35.1993 1391.44 Q33.8307 1393.92 33.1623 1396.43 Q32.4621 1398.92 32.4621 1401.46 Q32.4621 1407.16 36.0905 1410.31 Q39.6872 1413.46 46.212 1413.46 Q52.7369 1413.46 56.3653 1410.31 Q59.9619 1407.16 59.9619 1401.46 Q59.9619 1398.92 59.2935 1396.43 Q58.5933 1393.92 57.2247 1391.44 L62.6355 1391.44 Q63.7814 1393.89 64.3543 1396.53 Q64.9272 1399.14 64.9272 1402.1 Q64.9272 1410.15 59.8664 1414.89 Q54.8057 1419.64 46.212 1419.64 Q37.491 1419.64 32.4939 1414.86 Q27.4968 1410.06 27.4968 1401.72 Q27.4968 1399.01 28.0697 1396.43 Q28.6108 1393.86 29.7248 1391.44 Z" fill="#000000" fill-rule="nonzero" fill-opacity="1"></path><path clip-path="url(#clip910)" d="M44.7161 1350.76 L47.5806 1350.76 L47.5806 1377.69 Q53.6281 1377.3 56.8109 1374.06 Q59.9619 1370.78 59.9619 1364.95 Q59.9619 1361.58 59.1344 1358.43 Q58.3069 1355.25 56.6518 1352.13 L62.1899 1352.13 Q63.5267 1355.28 64.227 1358.59 Q64.9272 1361.9 64.9272 1365.3 Q64.9272 1373.83 59.9619 1378.83 Q54.9967 1383.8 46.5303 1383.8 Q37.7774 1383.8 32.6531 1379.09 Q27.4968 1374.34 27.4968 1366.32 Q27.4968 1359.13 32.1438 1354.96 Q36.7589 1350.76 44.7161 1350.76 M42.9973 1356.62 Q38.1912 1356.68 35.3266 1359.32 Q32.4621 1361.93 32.4621 1366.26 Q32.4621 1371.16 35.2312 1374.12 Q38.0002 1377.05 43.0292 1377.5 L42.9973 1356.62 Z" fill="#000000" fill-rule="nonzero" fill-opacity="1"></path><path clip-path="url(#clip910)" d="M42.4881 1311.51 L64.0042 1311.51 L64.0042 1317.37 L42.679 1317.37 Q37.6183 1317.37 35.1038 1319.34 Q32.5894 1321.32 32.5894 1325.26 Q32.5894 1330.01 35.6131 1332.74 Q38.6368 1335.48 43.8567 1335.48 L64.0042 1335.48 L64.0042 1341.37 L28.3562 1341.37 L28.3562 1335.48 L33.8944 1335.48 Q30.6797 1333.38 29.0883 1330.55 Q27.4968 1327.68 27.4968 1323.96 Q27.4968 1317.82 31.3163 1314.67 Q35.1038 1311.51 42.4881 1311.51 Z" fill="#000000" fill-rule="nonzero" fill-opacity="1"></path><path clip-path="url(#clip910)" d="M18.2347 1294.04 L28.3562 1294.04 L28.3562 1281.98 L32.9077 1281.98 L32.9077 1294.04 L52.2594 1294.04 Q56.6199 1294.04 57.8613 1292.86 Q59.1026 1291.65 59.1026 1287.99 L59.1026 1281.98 L64.0042 1281.98 L64.0042 1287.99 Q64.0042 1294.77 61.4897 1297.35 Q58.9434 1299.93 52.2594 1299.93 L32.9077 1299.93 L32.9077 1304.23 L28.3562 1304.23 L28.3562 1299.93 L18.2347 1299.93 L18.2347 1294.04 Z" fill="#000000" fill-rule="nonzero" fill-opacity="1"></path><path clip-path="url(#clip910)" d="M46.0847 1258.07 Q46.0847 1265.17 47.7079 1267.91 Q49.3312 1270.65 53.2461 1270.65 Q56.3653 1270.65 58.2114 1268.61 Q60.0256 1266.54 60.0256 1263.01 Q60.0256 1258.14 56.5881 1255.21 Q53.1188 1252.25 47.3897 1252.25 L46.0847 1252.25 L46.0847 1258.07 M43.6657 1246.39 L64.0042 1246.39 L64.0042 1252.25 L58.5933 1252.25 Q61.8398 1254.26 63.3994 1257.25 Q64.9272 1260.24 64.9272 1264.57 Q64.9272 1270.04 61.8716 1273.29 Q58.7843 1276.5 53.6281 1276.5 Q47.6125 1276.5 44.5569 1272.49 Q41.5014 1268.45 41.5014 1260.46 L41.5014 1252.25 L40.9285 1252.25 Q36.8862 1252.25 34.6901 1254.92 Q32.4621 1257.57 32.4621 1262.37 Q32.4621 1265.43 33.1941 1268.32 Q33.9262 1271.22 35.3903 1273.89 L29.9795 1273.89 Q28.7381 1270.68 28.1334 1267.65 Q27.4968 1264.63 27.4968 1261.77 Q27.4968 1254.03 31.5072 1250.21 Q35.5176 1246.39 43.6657 1246.39 Z" fill="#000000" fill-rule="nonzero" fill-opacity="1"></path><path clip-path="url(#clip910)" d="M45.7664 1210.87 Q39.4007 1210.87 35.8996 1213.51 Q32.3984 1216.12 32.3984 1220.87 Q32.3984 1225.58 35.8996 1228.22 Q39.4007 1230.83 45.7664 1230.83 Q52.1003 1230.83 55.6014 1228.22 Q59.1026 1225.58 59.1026 1220.87 Q59.1026 1216.12 55.6014 1213.51 Q52.1003 1210.87 45.7664 1210.87 M59.58 1205.02 Q68.683 1205.02 73.1071 1209.06 Q77.5631 1213.1 77.5631 1221.44 Q77.5631 1224.53 77.0857 1227.26 Q76.6401 1230 75.6852 1232.58 L69.9879 1232.58 Q71.3884 1230 72.0568 1227.49 Q72.7252 1224.97 72.7252 1222.36 Q72.7252 1216.6 69.7015 1213.74 Q66.7096 1210.87 60.6303 1210.87 L57.7339 1210.87 Q60.885 1212.69 62.4446 1215.52 Q64.0042 1218.35 64.0042 1222.3 Q64.0042 1228.86 59.0071 1232.87 Q54.01 1236.88 45.7664 1236.88 Q37.491 1236.88 32.4939 1232.87 Q27.4968 1228.86 27.4968 1222.3 Q27.4968 1218.35 29.0564 1215.52 Q30.616 1212.69 33.7671 1210.87 L28.3562 1210.87 L28.3562 1205.02 L59.58 1205.02 Z" fill="#000000" fill-rule="nonzero" fill-opacity="1"></path><path clip-path="url(#clip910)" d="M44.7161 1162.46 L47.5806 1162.46 L47.5806 1189.39 Q53.6281 1189.01 56.8109 1185.76 Q59.9619 1182.48 59.9619 1176.66 Q59.9619 1173.28 59.1344 1170.13 Q58.3069 1166.95 56.6518 1163.83 L62.1899 1163.83 Q63.5267 1166.98 64.227 1170.29 Q64.9272 1173.6 64.9272 1177.01 Q64.9272 1185.54 59.9619 1190.53 Q54.9967 1195.5 46.5303 1195.5 Q37.7774 1195.5 32.6531 1190.79 Q27.4968 1186.05 27.4968 1178.03 Q27.4968 1170.83 32.1438 1166.66 Q36.7589 1162.46 44.7161 1162.46 M42.9973 1168.32 Q38.1912 1168.38 35.3266 1171.02 Q32.4621 1173.63 32.4621 1177.96 Q32.4621 1182.86 35.2312 1185.82 Q38.0002 1188.75 43.0292 1189.2 L42.9973 1168.32 Z" fill="#000000" fill-rule="nonzero" fill-opacity="1"></path><path clip-path="url(#clip910)" d="M16.4842 1131.87 L16.4842 1125.45 L64.0042 1125.45 L64.0042 1131.87 L16.4842 1131.87 Z" fill="#000000" fill-rule="nonzero" fill-opacity="1"></path><path clip-path="url(#clip910)" d="M42.4881 1083.27 L64.0042 1083.27 L64.0042 1089.13 L42.679 1089.13 Q37.6183 1089.13 35.1038 1091.1 Q32.5894 1093.08 32.5894 1097.02 Q32.5894 1101.76 35.6131 1104.5 Q38.6368 1107.24 43.8567 1107.24 L64.0042 1107.24 L64.0042 1113.13 L28.3562 1113.13 L28.3562 1107.24 L33.8944 1107.24 Q30.6797 1105.14 29.0883 1102.31 Q27.4968 1099.44 27.4968 1095.72 Q27.4968 1089.57 31.3163 1086.42 Q35.1038 1083.27 42.4881 1083.27 Z" fill="#000000" fill-rule="nonzero" fill-opacity="1"></path><path clip-path="url(#clip910)" d="M29.7248 1045.94 L35.1993 1045.94 Q33.8307 1048.42 33.1623 1050.93 Q32.4621 1053.42 32.4621 1055.96 Q32.4621 1061.66 36.0905 1064.81 Q39.6872 1067.96 46.212 1067.96 Q52.7369 1067.96 56.3653 1064.81 Q59.9619 1061.66 59.9619 1055.96 Q59.9619 1053.42 59.2935 1050.93 Q58.5933 1048.42 57.2247 1045.94 L62.6355 1045.94 Q63.7814 1048.39 64.3543 1051.03 Q64.9272 1053.64 64.9272 1056.6 Q64.9272 1064.65 59.8664 1069.39 Q54.8057 1074.14 46.212 1074.14 Q37.491 1074.14 32.4939 1069.36 Q27.4968 1064.56 27.4968 1056.22 Q27.4968 1053.51 28.0697 1050.93 Q28.6108 1048.36 29.7248 1045.94 Z" fill="#000000" fill-rule="nonzero" fill-opacity="1"></path><path clip-path="url(#clip910)" d="M33.8307 1015.1 Q33.2578 1016.08 33.0032 1017.26 Q32.7167 1018.41 32.7167 1019.81 Q32.7167 1024.77 35.9632 1027.44 Q39.1779 1030.09 45.2253 1030.09 L64.0042 1030.09 L64.0042 1035.98 L28.3562 1035.98 L28.3562 1030.09 L33.8944 1030.09 Q30.6479 1028.24 29.0883 1025.28 Q27.4968 1022.32 27.4968 1018.09 Q27.4968 1017.48 27.5923 1016.75 Q27.656 1016.02 27.8151 1015.13 L33.8307 1015.1 Z" fill="#000000" fill-rule="nonzero" fill-opacity="1"></path><path clip-path="url(#clip910)" d="M44.7161 979.893 L47.5806 979.893 L47.5806 1006.82 Q53.6281 1006.44 56.8109 1003.19 Q59.9619 999.913 59.9619 994.089 Q59.9619 990.715 59.1344 987.564 Q58.3069 984.381 56.6518 981.262 L62.1899 981.262 Q63.5267 984.413 64.227 987.723 Q64.9272 991.033 64.9272 994.439 Q64.9272 1002.97 59.9619 1007.97 Q54.9967 1012.93 46.5303 1012.93 Q37.7774 1012.93 32.6531 1008.22 Q27.4968 1003.48 27.4968 995.457 Q27.4968 988.264 32.1438 984.095 Q36.7589 979.893 44.7161 979.893 M42.9973 985.75 Q38.1912 985.813 35.3266 988.455 Q32.4621 991.065 32.4621 995.394 Q32.4621 1000.3 35.2312 1003.26 Q38.0002 1006.18 43.0292 1006.63 L42.9973 985.75 Z" fill="#000000" fill-rule="nonzero" fill-opacity="1"></path><path clip-path="url(#clip910)" d="M46.0847 954.08 Q46.0847 961.178 47.7079 963.915 Q49.3312 966.652 53.2461 966.652 Q56.3653 966.652 58.2114 964.615 Q60.0256 962.547 60.0256 959.014 Q60.0256 954.144 56.5881 951.216 Q53.1188 948.256 47.3897 948.256 L46.0847 948.256 L46.0847 954.08 M43.6657 942.399 L64.0042 942.399 L64.0042 948.256 L58.5933 948.256 Q61.8398 950.261 63.3994 953.253 Q64.9272 956.245 64.9272 960.573 Q64.9272 966.048 61.8716 969.294 Q58.7843 972.509 53.6281 972.509 Q47.6125 972.509 44.5569 968.499 Q41.5014 964.456 41.5014 956.467 L41.5014 948.256 L40.9285 948.256 Q36.8862 948.256 34.6901 950.929 Q32.4621 953.571 32.4621 958.377 Q32.4621 961.433 33.1941 964.329 Q33.9262 967.225 35.3903 969.899 L29.9795 969.899 Q28.7381 966.684 28.1334 963.661 Q27.4968 960.637 27.4968 957.772 Q27.4968 950.038 31.5072 946.219 Q35.5176 942.399 43.6657 942.399 Z" fill="#000000" fill-rule="nonzero" fill-opacity="1"></path><path clip-path="url(#clip910)" d="M29.4065 907.611 L34.9447 907.611 Q33.6716 910.093 33.035 912.767 Q32.3984 915.44 32.3984 918.305 Q32.3984 922.665 33.7352 924.862 Q35.072 927.026 37.7456 927.026 Q39.7826 927.026 40.9603 925.466 Q42.1061 923.907 43.1565 919.196 L43.6021 917.191 Q44.9389 910.953 47.3897 908.343 Q49.8086 905.701 54.1691 905.701 Q59.1344 905.701 62.0308 909.648 Q64.9272 913.563 64.9272 920.437 Q64.9272 923.302 64.3543 926.421 Q63.8132 929.509 62.6992 932.946 L56.6518 932.946 Q58.3387 929.7 59.198 926.549 Q60.0256 923.398 60.0256 920.31 Q60.0256 916.172 58.6251 913.944 Q57.1929 911.716 54.6147 911.716 Q52.2276 911.716 50.9545 913.34 Q49.6813 914.931 48.5037 920.374 L48.0262 922.411 Q46.8804 927.854 44.5251 930.272 Q42.138 932.691 38.0002 932.691 Q32.9713 932.691 30.2341 929.127 Q27.4968 925.562 27.4968 919.005 Q27.4968 915.759 27.9743 912.894 Q28.4517 910.03 29.4065 907.611 Z" fill="#000000" fill-rule="nonzero" fill-opacity="1"></path><path clip-path="url(#clip910)" d="M44.7161 865.883 L47.5806 865.883 L47.5806 892.81 Q53.6281 892.428 56.8109 889.182 Q59.9619 885.904 59.9619 880.079 Q59.9619 876.705 59.1344 873.554 Q58.3069 870.371 56.6518 867.252 L62.1899 867.252 Q63.5267 870.403 64.227 873.713 Q64.9272 877.023 64.9272 880.429 Q64.9272 888.959 59.9619 893.956 Q54.9967 898.921 46.5303 898.921 Q37.7774 898.921 32.6531 894.211 Q27.4968 889.468 27.4968 881.448 Q27.4968 874.254 32.1438 870.085 Q36.7589 865.883 44.7161 865.883 M42.9973 871.74 Q38.1912 871.803 35.3266 874.445 Q32.4621 877.055 32.4621 881.384 Q32.4621 886.285 35.2312 889.246 Q38.0002 892.174 43.0292 892.619 L42.9973 871.74 Z" fill="#000000" fill-rule="nonzero" fill-opacity="1"></path><path clip-path="url(#clip910)" d="M28.3562 835.551 L28.3562 829.694 L64.0042 829.694 L64.0042 835.551 L28.3562 835.551 M14.479 835.551 L14.479 829.694 L21.895 829.694 L21.895 835.551 L14.479 835.551 Z" fill="#000000" fill-rule="nonzero" fill-opacity="1"></path><path clip-path="url(#clip910)" d="M42.4881 787.808 L64.0042 787.808 L64.0042 793.664 L42.679 793.664 Q37.6183 793.664 35.1038 795.638 Q32.5894 797.611 32.5894 801.558 Q32.5894 806.3 35.6131 809.038 Q38.6368 811.775 43.8567 811.775 L64.0042 811.775 L64.0042 817.663 L28.3562 817.663 L28.3562 811.775 L33.8944 811.775 Q30.6797 809.674 29.0883 806.841 Q27.4968 803.977 27.4968 800.253 Q27.4968 794.11 31.3163 790.959 Q35.1038 787.808 42.4881 787.808 Z" fill="#000000" fill-rule="nonzero" fill-opacity="1"></path><path clip-path="url(#clip910)" d="M22.818 739.269 L46.4666 747.99 L46.4666 730.517 L22.818 739.269 M16.4842 742.898 L16.4842 735.609 L64.0042 717.499 L64.0042 724.183 L51.8138 728.511 L51.8138 749.932 L64.0042 754.261 L64.0042 761.04 L16.4842 742.898 Z" fill="#000000" fill-rule="nonzero" fill-opacity="1"></path><path clip-path="url(#clip910)" d="M28.3562 718.836 L28.3562 712.629 L58.275 701.489 L28.3562 690.349 L28.3562 684.142 L64.0042 697.51 L64.0042 705.468 L28.3562 718.836 Z" fill="#000000" fill-rule="nonzero" fill-opacity="1"></path><path clip-path="url(#clip910)" d="M44.7161 645.566 L47.5806 645.566 L47.5806 672.493 Q53.6281 672.111 56.8109 668.865 Q59.9619 665.586 59.9619 659.762 Q59.9619 656.388 59.1344 653.237 Q58.3069 650.054 56.6518 646.935 L62.1899 646.935 Q63.5267 650.086 64.227 653.396 Q64.9272 656.706 64.9272 660.112 Q64.9272 668.642 59.9619 673.639 Q54.9967 678.604 46.5303 678.604 Q37.7774 678.604 32.6531 673.894 Q27.4968 669.151 27.4968 661.13 Q27.4968 653.937 32.1438 649.768 Q36.7589 645.566 44.7161 645.566 M42.9973 651.423 Q38.1912 651.486 35.3266 654.128 Q32.4621 656.738 32.4621 661.067 Q32.4621 665.968 35.2312 668.928 Q38.0002 671.857 43.0292 672.302 L42.9973 651.423 Z" fill="#000000" fill-rule="nonzero" fill-opacity="1"></path><path clip-path="url(#clip910)" d="M33.8307 615.297 Q33.2578 616.284 33.0032 617.462 Q32.7167 618.607 32.7167 620.008 Q32.7167 624.973 35.9632 627.647 Q39.1779 630.289 45.2253 630.289 L64.0042 630.289 L64.0042 636.177 L28.3562 636.177 L28.3562 630.289 L33.8944 630.289 Q30.6479 628.443 29.0883 625.482 Q27.4968 622.522 27.4968 618.289 Q27.4968 617.684 27.5923 616.952 Q27.656 616.22 27.8151 615.329 L33.8307 615.297 Z" fill="#000000" fill-rule="nonzero" fill-opacity="1"></path><path clip-path="url(#clip910)" d="M46.0847 592.954 Q46.0847 600.051 47.7079 602.789 Q49.3312 605.526 53.2461 605.526 Q56.3653 605.526 58.2114 603.489 Q60.0256 601.42 60.0256 597.887 Q60.0256 593.017 56.5881 590.089 Q53.1188 587.129 47.3897 587.129 L46.0847 587.129 L46.0847 592.954 M43.6657 581.273 L64.0042 581.273 L64.0042 587.129 L58.5933 587.129 Q61.8398 589.134 63.3994 592.126 Q64.9272 595.118 64.9272 599.447 Q64.9272 604.921 61.8716 608.168 Q58.7843 611.382 53.6281 611.382 Q47.6125 611.382 44.5569 607.372 Q41.5014 603.33 41.5014 595.341 L41.5014 587.129 L40.9285 587.129 Q36.8862 587.129 34.6901 589.803 Q32.4621 592.444 32.4621 597.251 Q32.4621 600.306 33.1941 603.202 Q33.9262 606.099 35.3903 608.772 L29.9795 608.772 Q28.7381 605.558 28.1334 602.534 Q27.4968 599.51 27.4968 596.646 Q27.4968 588.911 31.5072 585.092 Q35.5176 581.273 43.6657 581.273 Z" fill="#000000" fill-rule="nonzero" fill-opacity="1"></path><path clip-path="url(#clip910)" d="M45.7664 545.752 Q39.4007 545.752 35.8996 548.394 Q32.3984 551.004 32.3984 555.746 Q32.3984 560.457 35.8996 563.099 Q39.4007 565.708 45.7664 565.708 Q52.1003 565.708 55.6014 563.099 Q59.1026 560.457 59.1026 555.746 Q59.1026 551.004 55.6014 548.394 Q52.1003 545.752 45.7664 545.752 M59.58 539.896 Q68.683 539.896 73.1071 543.938 Q77.5631 547.98 77.5631 556.319 Q77.5631 559.406 77.0857 562.144 Q76.6401 564.881 75.6852 567.459 L69.9879 567.459 Q71.3884 564.881 72.0568 562.366 Q72.7252 559.852 72.7252 557.242 Q72.7252 551.481 69.7015 548.617 Q66.7096 545.752 60.6303 545.752 L57.7339 545.752 Q60.885 547.566 62.4446 550.399 Q64.0042 553.232 64.0042 557.178 Q64.0042 563.735 59.0071 567.745 Q54.01 571.756 45.7664 571.756 Q37.491 571.756 32.4939 567.745 Q27.4968 563.735 27.4968 557.178 Q27.4968 553.232 29.0564 550.399 Q30.616 547.566 33.7671 545.752 L28.3562 545.752 L28.3562 539.896 L59.58 539.896 Z" fill="#000000" fill-rule="nonzero" fill-opacity="1"></path><path clip-path="url(#clip910)" d="M44.7161 497.341 L47.5806 497.341 L47.5806 524.268 Q53.6281 523.886 56.8109 520.639 Q59.9619 517.361 59.9619 511.536 Q59.9619 508.162 59.1344 505.011 Q58.3069 501.829 56.6518 498.709 L62.1899 498.709 Q63.5267 501.86 64.227 505.171 Q64.9272 508.481 64.9272 511.886 Q64.9272 520.416 59.9619 525.414 Q54.9967 530.379 46.5303 530.379 Q37.7774 530.379 32.6531 525.668 Q27.4968 520.926 27.4968 512.905 Q27.4968 505.712 32.1438 501.542 Q36.7589 497.341 44.7161 497.341 M42.9973 503.197 Q38.1912 503.261 35.3266 505.903 Q32.4621 508.513 32.4621 512.841 Q32.4621 517.743 35.2312 520.703 Q38.0002 523.631 43.0292 524.077 L42.9973 503.197 Z" fill="#000000" fill-rule="nonzero" fill-opacity="1"></path><path clip-path="url(#clip910)" d="M16.4842 473.342 L16.4842 433.143 L21.895 433.143 L21.895 450.012 L64.0042 450.012 L64.0042 456.473 L21.895 456.473 L21.895 473.342 L16.4842 473.342 Z" fill="#000000" fill-rule="nonzero" fill-opacity="1"></path><path clip-path="url(#clip910)" d="M32.4621 424.453 Q32.4621 429.164 36.1542 431.901 Q39.8145 434.639 46.212 434.639 Q52.6095 434.639 56.3017 431.933 Q59.9619 429.196 59.9619 424.453 Q59.9619 419.775 56.2698 417.037 Q52.5777 414.3 46.212 414.3 Q39.8781 414.3 36.186 417.037 Q32.4621 419.775 32.4621 424.453 M27.4968 424.453 Q27.4968 416.815 32.4621 412.454 Q37.4273 408.094 46.212 408.094 Q54.9649 408.094 59.9619 412.454 Q64.9272 416.815 64.9272 424.453 Q64.9272 432.124 59.9619 436.485 Q54.9649 440.813 46.212 440.813 Q37.4273 440.813 32.4621 436.485 Q27.4968 432.124 27.4968 424.453 Z" fill="#000000" fill-rule="nonzero" fill-opacity="1"></path><path clip-path="url(#clip910)" d="M18.2347 392.593 L28.3562 392.593 L28.3562 380.53 L32.9077 380.53 L32.9077 392.593 L52.2594 392.593 Q56.6199 392.593 57.8613 391.415 Q59.1026 390.206 59.1026 386.546 L59.1026 380.53 L64.0042 380.53 L64.0042 386.546 Q64.0042 393.325 61.4897 395.903 Q58.9434 398.481 52.2594 398.481 L32.9077 398.481 L32.9077 402.778 L28.3562 402.778 L28.3562 398.481 L18.2347 398.481 L18.2347 392.593 Z" fill="#000000" fill-rule="nonzero" fill-opacity="1"></path><path clip-path="url(#clip910)" d="M46.0847 356.627 Q46.0847 363.725 47.7079 366.462 Q49.3312 369.199 53.2461 369.199 Q56.3653 369.199 58.2114 367.162 Q60.0256 365.093 60.0256 361.56 Q60.0256 356.69 56.5881 353.762 Q53.1188 350.802 47.3897 350.802 L46.0847 350.802 L46.0847 356.627 M43.6657 344.946 L64.0042 344.946 L64.0042 350.802 L58.5933 350.802 Q61.8398 352.807 63.3994 355.799 Q64.9272 358.791 64.9272 363.12 Q64.9272 368.594 61.8716 371.841 Q58.7843 375.056 53.6281 375.056 Q47.6125 375.056 44.5569 371.045 Q41.5014 367.003 41.5014 359.014 L41.5014 350.802 L40.9285 350.802 Q36.8862 350.802 34.6901 353.476 Q32.4621 356.118 32.4621 360.924 Q32.4621 363.979 33.1941 366.876 Q33.9262 369.772 35.3903 372.446 L29.9795 372.446 Q28.7381 369.231 28.1334 366.207 Q27.4968 363.184 27.4968 360.319 Q27.4968 352.585 31.5072 348.765 Q35.5176 344.946 43.6657 344.946 Z" fill="#000000" fill-rule="nonzero" fill-opacity="1"></path><path clip-path="url(#clip910)" d="M14.479 332.883 L14.479 327.026 L64.0042 327.026 L64.0042 332.883 L14.479 332.883 Z" fill="#000000" fill-rule="nonzero" fill-opacity="1"></path><path clip-path="url(#clip910)" d="M20.1444 258.213 L26.9239 258.213 Q23.9002 261.46 22.4043 265.152 Q20.9083 268.812 20.9083 272.95 Q20.9083 281.098 25.9054 285.426 Q30.8707 289.755 40.2919 289.755 Q49.6813 289.755 54.6784 285.426 Q59.6436 281.098 59.6436 272.95 Q59.6436 268.812 58.1477 265.152 Q56.6518 261.46 53.6281 258.213 L60.3439 258.213 Q62.6355 261.587 63.7814 265.374 Q64.9272 269.13 64.9272 273.332 Q64.9272 284.121 58.3387 290.328 Q51.7183 296.535 40.2919 296.535 Q28.8336 296.535 22.2451 290.328 Q15.6248 284.121 15.6248 273.332 Q15.6248 269.067 16.7706 265.311 Q17.8846 261.523 20.1444 258.213 Z" fill="#000000" fill-rule="nonzero" fill-opacity="1"></path><path clip-path="url(#clip910)" d="M32.4621 234.724 Q32.4621 239.434 36.1542 242.171 Q39.8145 244.909 46.212 244.909 Q52.6095 244.909 56.3017 242.203 Q59.9619 239.466 59.9619 234.724 Q59.9619 230.045 56.2698 227.307 Q52.5777 224.57 46.212 224.57 Q39.8781 224.57 36.186 227.307 Q32.4621 230.045 32.4621 234.724 M27.4968 234.724 Q27.4968 227.085 32.4621 222.724 Q37.4273 218.364 46.212 218.364 Q54.9649 218.364 59.9619 222.724 Q64.9272 227.085 64.9272 234.724 Q64.9272 242.394 59.9619 246.755 Q54.9649 251.083 46.212 251.083 Q37.4273 251.083 32.4621 246.755 Q27.4968 242.394 27.4968 234.724 Z" fill="#000000" fill-rule="nonzero" fill-opacity="1"></path><path clip-path="url(#clip910)" d="M29.4065 185.93 L34.9447 185.93 Q33.6716 188.413 33.035 191.087 Q32.3984 193.76 32.3984 196.625 Q32.3984 200.985 33.7352 203.181 Q35.072 205.346 37.7456 205.346 Q39.7826 205.346 40.9603 203.786 Q42.1061 202.227 43.1565 197.516 L43.6021 195.511 Q44.9389 189.272 47.3897 186.662 Q49.8086 184.021 54.1691 184.021 Q59.1344 184.021 62.0308 187.967 Q64.9272 191.882 64.9272 198.757 Q64.9272 201.622 64.3543 204.741 Q63.8132 207.828 62.6992 211.266 L56.6518 211.266 Q58.3387 208.019 59.198 204.868 Q60.0256 201.717 60.0256 198.63 Q60.0256 194.492 58.6251 192.264 Q57.1929 190.036 54.6147 190.036 Q52.2276 190.036 50.9545 191.66 Q49.6813 193.251 48.5037 198.694 L48.0262 200.731 Q46.8804 206.173 44.5251 208.592 Q42.138 211.011 38.0002 211.011 Q32.9713 211.011 30.2341 207.446 Q27.4968 203.882 27.4968 197.325 Q27.4968 194.079 27.9743 191.214 Q28.4517 188.349 29.4065 185.93 Z" fill="#000000" fill-rule="nonzero" fill-opacity="1"></path><path clip-path="url(#clip910)" d="M18.2347 168.902 L28.3562 168.902 L28.3562 156.839 L32.9077 156.839 L32.9077 168.902 L52.2594 168.902 Q56.6199 168.902 57.8613 167.724 Q59.1026 166.515 59.1026 162.855 L59.1026 156.839 L64.0042 156.839 L64.0042 162.855 Q64.0042 169.634 61.4897 172.212 Q58.9434 174.79 52.2594 174.79 L32.9077 174.79 L32.9077 179.087 L28.3562 179.087 L28.3562 174.79 L18.2347 174.79 L18.2347 168.902 Z" fill="#000000" fill-rule="nonzero" fill-opacity="1"></path><path clip-path="url(#clip910)" d="M14.5426 114.348 Q21.8632 118.613 29.0246 120.682 Q36.186 122.751 43.5384 122.751 Q50.8908 122.751 58.1159 120.682 Q65.3091 118.581 72.5979 114.348 L72.5979 119.441 Q65.1182 124.215 57.8931 126.602 Q50.668 128.957 43.5384 128.957 Q36.4406 128.957 29.2474 126.602 Q22.0542 124.247 14.5426 119.441 L14.5426 114.348 Z" fill="#000000" fill-rule="nonzero" fill-opacity="1"></path><path clip-path="url(#clip910)" d="M43.0928 61.7355 Q43.0928 64.5046 45.4481 66.096 Q47.8034 67.6556 52.0048 67.6556 Q56.1425 67.6556 58.5296 66.096 Q60.885 64.5046 60.885 61.7355 Q60.885 59.03 58.5296 57.4704 Q56.1425 55.879 52.0048 55.879 Q47.8353 55.879 45.48 57.4704 Q43.0928 59.03 43.0928 61.7355 M39.0506 61.7355 Q39.0506 56.7066 42.5517 53.7465 Q46.0529 50.7865 52.0048 50.7865 Q57.9567 50.7865 61.4579 53.7783 Q64.9272 56.7384 64.9272 61.7355 Q64.9272 66.828 61.4579 69.7881 Q57.9567 72.7481 52.0048 72.7481 Q46.021 72.7481 42.5517 69.7881 Q39.0506 66.7962 39.0506 61.7355 M19.667 94.5825 Q19.667 97.3198 22.0542 98.9112 Q24.4095 100.471 28.5472 100.471 Q32.7485 100.471 35.1038 98.9112 Q37.4592 97.3516 37.4592 94.5825 Q37.4592 91.8134 35.1038 90.2538 Q32.7485 88.6624 28.5472 88.6624 Q24.4413 88.6624 22.0542 90.2538 Q19.667 91.8453 19.667 94.5825 M15.6248 65.8413 L15.6248 60.7488 L64.9272 90.4766 L64.9272 95.5692 L15.6248 65.8413 M15.6248 94.5825 Q15.6248 89.5536 19.1259 86.5617 Q22.5952 83.5698 28.5472 83.5698 Q34.5628 83.5698 38.0321 86.5617 Q41.5014 89.5218 41.5014 94.5825 Q41.5014 99.6433 38.0321 102.603 Q34.5309 105.532 28.5472 105.532 Q22.6271 105.532 19.1259 102.571 Q15.6248 99.6114 15.6248 94.5825 Z" fill="#000000" fill-rule="nonzero" fill-opacity="1"></path><path clip-path="url(#clip910)" d="M14.5426 41.9699 L14.5426 36.8774 Q22.0542 32.1031 29.2474 29.7478 Q36.4406 27.3607 43.5384 27.3607 Q50.668 27.3607 57.8931 29.7478 Q65.1182 32.1031 72.5979 36.8774 L72.5979 41.9699 Q65.3091 37.7368 58.1159 35.6679 Q50.8908 33.5672 43.5384 33.5672 Q36.186 33.5672 29.0246 35.6679 Q21.8632 37.7368 14.5426 41.9699 Z" fill="#000000" fill-rule="nonzero" fill-opacity="1"></path><path clip-path="url(#clip910)" d="M673.696 18.8205 L673.696 41.5461 L683.985 41.5461 Q689.697 41.5461 692.816 38.5889 Q695.935 35.6318 695.935 30.163 Q695.935 24.7348 692.816 21.7777 Q689.697 18.8205 683.985 18.8205 L673.696 18.8205 M665.513 12.096 L683.985 12.096 Q694.153 12.096 699.338 16.714 Q704.564 21.2916 704.564 30.163 Q704.564 39.1155 699.338 43.6931 Q694.153 48.2706 683.985 48.2706 L673.696 48.2706 L673.696 72.576 L665.513 72.576 L665.513 12.096 Z" fill="#000000" fill-rule="nonzero" fill-opacity="1"></path><path clip-path="url(#clip910)" d="M751.068 48.0275 L751.068 51.6733 L716.797 51.6733 Q717.283 59.3701 721.415 63.421 Q725.588 67.4314 733.001 67.4314 Q737.295 67.4314 741.305 66.3781 Q745.356 65.3249 749.326 63.2184 L749.326 70.267 Q745.316 71.9684 741.103 72.8596 Q736.89 73.7508 732.555 73.7508 Q721.699 73.7508 715.339 67.4314 Q709.02 61.1119 709.02 50.3365 Q709.02 39.1965 715.015 32.6746 Q721.051 26.1121 731.259 26.1121 Q740.414 26.1121 745.721 32.0264 Q751.068 37.9003 751.068 48.0275 M743.614 45.84 Q743.533 39.7232 740.171 36.0774 Q736.849 32.4315 731.34 32.4315 Q725.102 32.4315 721.334 35.9558 Q717.608 39.4801 717.04 45.8805 L743.614 45.84 Z" fill="#000000" fill-rule="nonzero" fill-opacity="1"></path><path clip-path="url(#clip910)" d="M789.592 34.1734 Q788.336 33.4443 786.837 33.1202 Q785.379 32.7556 783.597 32.7556 Q777.277 32.7556 773.875 36.8875 Q770.512 40.9789 770.512 48.6757 L770.512 72.576 L763.018 72.576 L763.018 27.2059 L770.512 27.2059 L770.512 34.2544 Q772.862 30.1225 776.629 28.1376 Q780.397 26.1121 785.784 26.1121 Q786.554 26.1121 787.486 26.2337 Q788.417 26.3147 789.552 26.5172 L789.592 34.1734 Z" fill="#000000" fill-rule="nonzero" fill-opacity="1"></path><path clip-path="url(#clip910)" d="M820.379 9.54393 L820.379 15.7418 L813.249 15.7418 Q809.239 15.7418 807.659 17.3622 Q806.12 18.9825 806.12 23.1955 L806.12 27.2059 L818.394 27.2059 L818.394 32.9987 L806.12 32.9987 L806.12 72.576 L798.626 72.576 L798.626 32.9987 L791.496 32.9987 L791.496 27.2059 L798.626 27.2059 L798.626 24.0462 Q798.626 16.471 802.15 13.0277 Q805.674 9.54393 813.33 9.54393 L820.379 9.54393 Z" fill="#000000" fill-rule="nonzero" fill-opacity="1"></path><path clip-path="url(#clip910)" d="M844.198 32.4315 Q838.203 32.4315 834.719 37.1306 Q831.235 41.7891 831.235 49.9314 Q831.235 58.0738 834.679 62.7728 Q838.162 67.4314 844.198 67.4314 Q850.153 67.4314 853.637 62.7323 Q857.121 58.0333 857.121 49.9314 Q857.121 41.8701 853.637 37.1711 Q850.153 32.4315 844.198 32.4315 M844.198 26.1121 Q853.92 26.1121 859.47 32.4315 Q865.02 38.7509 865.02 49.9314 Q865.02 61.0714 859.47 67.4314 Q853.92 73.7508 844.198 73.7508 Q834.436 73.7508 828.886 67.4314 Q823.377 61.0714 823.377 49.9314 Q823.377 38.7509 828.886 32.4315 Q834.436 26.1121 844.198 26.1121 Z" fill="#000000" fill-rule="nonzero" fill-opacity="1"></path><path clip-path="url(#clip910)" d="M903.666 34.1734 Q902.41 33.4443 900.911 33.1202 Q899.453 32.7556 897.67 32.7556 Q891.351 32.7556 887.948 36.8875 Q884.586 40.9789 884.586 48.6757 L884.586 72.576 L877.092 72.576 L877.092 27.2059 L884.586 27.2059 L884.586 34.2544 Q886.935 30.1225 890.703 28.1376 Q894.47 26.1121 899.858 26.1121 Q900.627 26.1121 901.559 26.2337 Q902.491 26.3147 903.625 26.5172 L903.666 34.1734 Z" fill="#000000" fill-rule="nonzero" fill-opacity="1"></path><path clip-path="url(#clip910)" d="M945.349 35.9153 Q948.144 30.8922 952.033 28.5022 Q955.922 26.1121 961.188 26.1121 Q968.277 26.1121 972.126 31.0947 Q975.974 36.0368 975.974 45.1919 L975.974 72.576 L968.48 72.576 L968.48 45.4349 Q968.48 38.913 966.171 35.7533 Q963.862 32.5936 959.122 32.5936 Q953.33 32.5936 949.967 36.4419 Q946.605 40.2903 946.605 46.9338 L946.605 72.576 L939.111 72.576 L939.111 45.4349 Q939.111 38.8725 936.802 35.7533 Q934.493 32.5936 929.672 32.5936 Q923.961 32.5936 920.598 36.4824 Q917.236 40.3308 917.236 46.9338 L917.236 72.576 L909.742 72.576 L909.742 27.2059 L917.236 27.2059 L917.236 34.2544 Q919.788 30.082 923.353 28.0971 Q926.918 26.1121 931.819 26.1121 Q936.761 26.1121 940.205 28.6237 Q943.689 31.1352 945.349 35.9153 Z" fill="#000000" fill-rule="nonzero" fill-opacity="1"></path><path clip-path="url(#clip910)" d="M1011.46 49.7694 Q1002.43 49.7694 998.943 51.8354 Q995.459 53.9013 995.459 58.8839 Q995.459 62.8538 998.052 65.2034 Q1000.68 67.5124 1005.18 67.5124 Q1011.38 67.5124 1015.11 63.1374 Q1018.87 58.7219 1018.87 51.4303 L1018.87 49.7694 L1011.46 49.7694 M1026.33 46.6907 L1026.33 72.576 L1018.87 72.576 L1018.87 65.6895 Q1016.32 69.8214 1012.51 71.8063 Q1008.71 73.7508 1003.2 73.7508 Q996.229 73.7508 992.097 69.8619 Q988.005 65.9325 988.005 59.3701 Q988.005 51.7138 993.11 47.825 Q998.254 43.9361 1008.42 43.9361 L1018.87 43.9361 L1018.87 43.2069 Q1018.87 38.0623 1015.47 35.2672 Q1012.11 32.4315 1005.99 32.4315 Q1002.1 32.4315 998.416 33.3632 Q994.73 34.295 991.327 36.1584 L991.327 29.2718 Q995.419 27.692 999.267 26.9223 Q1003.12 26.1121 1006.76 26.1121 Q1016.6 26.1121 1021.47 31.2163 Q1026.33 36.3204 1026.33 46.6907 Z" fill="#000000" fill-rule="nonzero" fill-opacity="1"></path><path clip-path="url(#clip910)" d="M1079.39 45.1919 L1079.39 72.576 L1071.94 72.576 L1071.94 45.4349 Q1071.94 38.994 1069.43 35.7938 Q1066.92 32.5936 1061.89 32.5936 Q1055.86 32.5936 1052.37 36.4419 Q1048.89 40.2903 1048.89 46.9338 L1048.89 72.576 L1041.4 72.576 L1041.4 27.2059 L1048.89 27.2059 L1048.89 34.2544 Q1051.56 30.163 1055.17 28.1376 Q1058.82 26.1121 1063.55 26.1121 Q1071.37 26.1121 1075.38 30.9732 Q1079.39 35.7938 1079.39 45.1919 Z" fill="#000000" fill-rule="nonzero" fill-opacity="1"></path><path clip-path="url(#clip910)" d="M1126.91 28.9478 L1126.91 35.9153 Q1123.75 34.1734 1120.55 33.3227 Q1117.39 32.4315 1114.15 32.4315 Q1106.9 32.4315 1102.89 37.0496 Q1098.88 41.6271 1098.88 49.9314 Q1098.88 58.2358 1102.89 62.8538 Q1106.9 67.4314 1114.15 67.4314 Q1117.39 67.4314 1120.55 66.5807 Q1123.75 65.6895 1126.91 63.9476 L1126.91 70.8341 Q1123.79 72.2924 1120.43 73.0216 Q1117.11 73.7508 1113.34 73.7508 Q1103.09 73.7508 1097.06 67.3098 Q1091.02 60.8689 1091.02 49.9314 Q1091.02 38.832 1097.1 32.472 Q1103.21 26.1121 1113.83 26.1121 Q1117.27 26.1121 1120.55 26.8413 Q1123.83 27.5299 1126.91 28.9478 Z" fill="#000000" fill-rule="nonzero" fill-opacity="1"></path><path clip-path="url(#clip910)" d="M1178.68 48.0275 L1178.68 51.6733 L1144.41 51.6733 Q1144.9 59.3701 1149.03 63.421 Q1153.2 67.4314 1160.61 67.4314 Q1164.91 67.4314 1168.92 66.3781 Q1172.97 65.3249 1176.94 63.2184 L1176.94 70.267 Q1172.93 71.9684 1168.72 72.8596 Q1164.5 73.7508 1160.17 73.7508 Q1149.31 73.7508 1142.95 67.4314 Q1136.63 61.1119 1136.63 50.3365 Q1136.63 39.1965 1142.63 32.6746 Q1148.66 26.1121 1158.87 26.1121 Q1168.03 26.1121 1173.33 32.0264 Q1178.68 37.9003 1178.68 48.0275 M1171.23 45.84 Q1171.15 39.7232 1167.78 36.0774 Q1164.46 32.4315 1158.95 32.4315 Q1152.72 32.4315 1148.95 35.9558 Q1145.22 39.4801 1144.65 45.8805 L1171.23 45.84 Z" fill="#000000" fill-rule="nonzero" fill-opacity="1"></path><path clip-path="url(#clip910)" d="M1211.94 27.2059 L1219.84 27.2059 L1234.02 65.2844 L1248.19 27.2059 L1256.09 27.2059 L1239.08 72.576 L1228.95 72.576 L1211.94 27.2059 Z" fill="#000000" fill-rule="nonzero" fill-opacity="1"></path><path clip-path="url(#clip910)" d="M1295.31 28.5427 L1295.31 35.5912 Q1292.15 33.9709 1288.74 33.1607 Q1285.34 32.3505 1281.7 32.3505 Q1276.15 32.3505 1273.35 34.0519 Q1270.6 35.7533 1270.6 39.156 Q1270.6 41.7486 1272.58 43.2475 Q1274.57 44.7058 1280.56 46.0426 L1283.11 46.6097 Q1291.05 48.3111 1294.38 51.4303 Q1297.74 54.509 1297.74 60.0587 Q1297.74 66.3781 1292.71 70.0644 Q1287.73 73.7508 1278.98 73.7508 Q1275.34 73.7508 1271.37 73.0216 Q1267.44 72.3329 1263.06 70.9151 L1263.06 63.2184 Q1267.19 65.3654 1271.2 66.4591 Q1275.21 67.5124 1279.14 67.5124 Q1284.41 67.5124 1287.25 65.73 Q1290.08 63.9071 1290.08 60.6258 Q1290.08 57.5877 1288.02 55.9673 Q1285.99 54.3469 1279.06 52.8481 L1276.47 52.2405 Q1269.54 50.7821 1266.46 47.7845 Q1263.39 44.7463 1263.39 39.4801 Q1263.39 33.0797 1267.92 29.5959 Q1272.46 26.1121 1280.8 26.1121 Q1284.94 26.1121 1288.58 26.7198 Q1292.23 27.3274 1295.31 28.5427 Z" fill="#000000" fill-rule="nonzero" fill-opacity="1"></path><path clip-path="url(#clip910)" d="M1310.66 62.2867 L1319.21 62.2867 L1319.21 72.576 L1310.66 72.576 L1310.66 62.2867 Z" fill="#000000" fill-rule="nonzero" fill-opacity="1"></path><path clip-path="url(#clip910)" d="M1407.96 16.7545 L1407.96 25.383 Q1403.83 21.5346 1399.13 19.6307 Q1394.47 17.7268 1389.21 17.7268 Q1378.84 17.7268 1373.33 24.0867 Q1367.82 30.4061 1367.82 42.3968 Q1367.82 54.3469 1373.33 60.7069 Q1378.84 67.0263 1389.21 67.0263 Q1394.47 67.0263 1399.13 65.1223 Q1403.83 63.2184 1407.96 59.3701 L1407.96 67.9175 Q1403.67 70.8341 1398.85 72.2924 Q1394.07 73.7508 1388.72 73.7508 Q1374.99 73.7508 1367.09 65.3654 Q1359.19 56.9395 1359.19 42.3968 Q1359.19 27.8135 1367.09 19.4281 Q1374.99 11.0023 1388.72 11.0023 Q1394.15 11.0023 1398.93 12.4606 Q1403.75 13.8784 1407.96 16.7545 Z" fill="#000000" fill-rule="nonzero" fill-opacity="1"></path><path clip-path="url(#clip910)" d="M1437.86 32.4315 Q1431.86 32.4315 1428.38 37.1306 Q1424.9 41.7891 1424.9 49.9314 Q1424.9 58.0738 1428.34 62.7728 Q1431.82 67.4314 1437.86 67.4314 Q1443.81 67.4314 1447.3 62.7323 Q1450.78 58.0333 1450.78 49.9314 Q1450.78 41.8701 1447.3 37.1711 Q1443.81 32.4315 1437.86 32.4315 M1437.86 26.1121 Q1447.58 26.1121 1453.13 32.4315 Q1458.68 38.7509 1458.68 49.9314 Q1458.68 61.0714 1453.13 67.4314 Q1447.58 73.7508 1437.86 73.7508 Q1428.1 73.7508 1422.55 67.4314 Q1417.04 61.0714 1417.04 49.9314 Q1417.04 38.7509 1422.55 32.4315 Q1428.1 26.1121 1437.86 26.1121 Z" fill="#000000" fill-rule="nonzero" fill-opacity="1"></path><path clip-path="url(#clip910)" d="M1499.96 28.5427 L1499.96 35.5912 Q1496.8 33.9709 1493.4 33.1607 Q1489.99 32.3505 1486.35 32.3505 Q1480.8 32.3505 1478 34.0519 Q1475.25 35.7533 1475.25 39.156 Q1475.25 41.7486 1477.23 43.2475 Q1479.22 44.7058 1485.21 46.0426 L1487.77 46.6097 Q1495.71 48.3111 1499.03 51.4303 Q1502.39 54.509 1502.39 60.0587 Q1502.39 66.3781 1497.37 70.0644 Q1492.38 73.7508 1483.63 73.7508 Q1479.99 73.7508 1476.02 73.0216 Q1472.09 72.3329 1467.71 70.9151 L1467.71 63.2184 Q1471.85 65.3654 1475.86 66.4591 Q1479.87 67.5124 1483.8 67.5124 Q1489.06 67.5124 1491.9 65.73 Q1494.73 63.9071 1494.73 60.6258 Q1494.73 57.5877 1492.67 55.9673 Q1490.64 54.3469 1483.71 52.8481 L1481.12 52.2405 Q1474.19 50.7821 1471.12 47.7845 Q1468.04 44.7463 1468.04 39.4801 Q1468.04 33.0797 1472.57 29.5959 Q1477.11 26.1121 1485.46 26.1121 Q1489.59 26.1121 1493.23 26.7198 Q1496.88 27.3274 1499.96 28.5427 Z" fill="#000000" fill-rule="nonzero" fill-opacity="1"></path><path clip-path="url(#clip910)" d="M1521.63 14.324 L1521.63 27.2059 L1536.98 27.2059 L1536.98 32.9987 L1521.63 32.9987 L1521.63 57.6282 Q1521.63 63.1779 1523.13 64.7578 Q1524.67 66.3376 1529.33 66.3376 L1536.98 66.3376 L1536.98 72.576 L1529.33 72.576 Q1520.7 72.576 1517.42 69.3758 Q1514.14 66.1351 1514.14 57.6282 L1514.14 32.9987 L1508.67 32.9987 L1508.67 27.2059 L1514.14 27.2059 L1514.14 14.324 L1521.63 14.324 Z" fill="#000000" fill-rule="nonzero" fill-opacity="1"></path><path clip-path="url(#clip910)" d="M1565.1 12.096 L1616.26 12.096 L1616.26 18.9825 L1594.79 18.9825 L1594.79 72.576 L1586.57 72.576 L1586.57 18.9825 L1565.1 18.9825 L1565.1 12.096 Z" fill="#000000" fill-rule="nonzero" fill-opacity="1"></path><path clip-path="url(#clip910)" d="M1637.93 34.1734 Q1636.68 33.4443 1635.18 33.1202 Q1633.72 32.7556 1631.94 32.7556 Q1625.62 32.7556 1622.21 36.8875 Q1618.85 40.9789 1618.85 48.6757 L1618.85 72.576 L1611.36 72.576 L1611.36 27.2059 L1618.85 27.2059 L1618.85 34.2544 Q1621.2 30.1225 1624.97 28.1376 Q1628.74 26.1121 1634.12 26.1121 Q1634.89 26.1121 1635.83 26.2337 Q1636.76 26.3147 1637.89 26.5172 L1637.93 34.1734 Z" fill="#000000" fill-rule="nonzero" fill-opacity="1"></path><path clip-path="url(#clip910)" d="M1666.37 49.7694 Q1657.34 49.7694 1653.85 51.8354 Q1650.37 53.9013 1650.37 58.8839 Q1650.37 62.8538 1652.96 65.2034 Q1655.59 67.5124 1660.09 67.5124 Q1666.29 67.5124 1670.02 63.1374 Q1673.78 58.7219 1673.78 51.4303 L1673.78 49.7694 L1666.37 49.7694 M1681.24 46.6907 L1681.24 72.576 L1673.78 72.576 L1673.78 65.6895 Q1671.23 69.8214 1667.42 71.8063 Q1663.62 73.7508 1658.11 73.7508 Q1651.14 73.7508 1647.01 69.8619 Q1642.92 65.9325 1642.92 59.3701 Q1642.92 51.7138 1648.02 47.825 Q1653.16 43.9361 1663.33 43.9361 L1673.78 43.9361 L1673.78 43.2069 Q1673.78 38.0623 1670.38 35.2672 Q1667.02 32.4315 1660.9 32.4315 Q1657.01 32.4315 1653.33 33.3632 Q1649.64 34.295 1646.24 36.1584 L1646.24 29.2718 Q1650.33 27.692 1654.18 26.9223 Q1658.02 26.1121 1661.67 26.1121 Q1671.51 26.1121 1676.38 31.2163 Q1681.24 36.3204 1681.24 46.6907 Z" fill="#000000" fill-rule="nonzero" fill-opacity="1"></path><path clip-path="url(#clip910)" d="M1726.44 34.0924 L1726.44 9.54393 L1733.9 9.54393 L1733.9 72.576 L1726.44 72.576 L1726.44 65.7705 Q1724.1 69.8214 1720.49 71.8063 Q1716.93 73.7508 1711.9 73.7508 Q1703.68 73.7508 1698.49 67.1883 Q1693.35 60.6258 1693.35 49.9314 Q1693.35 39.2371 1698.49 32.6746 Q1703.68 26.1121 1711.9 26.1121 Q1716.93 26.1121 1720.49 28.0971 Q1724.1 30.0415 1726.44 34.0924 M1701.05 49.9314 Q1701.05 58.1548 1704.41 62.8538 Q1707.81 67.5124 1713.72 67.5124 Q1719.64 67.5124 1723.04 62.8538 Q1726.44 58.1548 1726.44 49.9314 Q1726.44 41.7081 1723.04 37.0496 Q1719.64 32.3505 1713.72 32.3505 Q1707.81 32.3505 1704.41 37.0496 Q1701.05 41.7081 1701.05 49.9314 Z" fill="#000000" fill-rule="nonzero" fill-opacity="1"></path><path clip-path="url(#clip910)" d="M1788.06 48.0275 L1788.06 51.6733 L1753.79 51.6733 Q1754.27 59.3701 1758.41 63.421 Q1762.58 67.4314 1769.99 67.4314 Q1774.29 67.4314 1778.3 66.3781 Q1782.35 65.3249 1786.32 63.2184 L1786.32 70.267 Q1782.31 71.9684 1778.09 72.8596 Q1773.88 73.7508 1769.55 73.7508 Q1758.69 73.7508 1752.33 67.4314 Q1746.01 61.1119 1746.01 50.3365 Q1746.01 39.1965 1752.01 32.6746 Q1758.04 26.1121 1768.25 26.1121 Q1777.41 26.1121 1782.71 32.0264 Q1788.06 37.9003 1788.06 48.0275 M1780.61 45.84 Q1780.52 39.7232 1777.16 36.0774 Q1773.84 32.4315 1768.33 32.4315 Q1762.09 32.4315 1758.33 35.9558 Q1754.6 39.4801 1754.03 45.8805 L1780.61 45.84 Z" fill="#000000" fill-rule="nonzero" fill-opacity="1"></path><path clip-path="url(#clip910)" d="M1796.53 46.5287 L1818.36 46.5287 L1818.36 53.1722 L1796.53 53.1722 L1796.53 46.5287 Z" fill="#000000" fill-rule="nonzero" fill-opacity="1"></path><path clip-path="url(#clip910)" d="M1849.35 32.4315 Q1843.35 32.4315 1839.87 37.1306 Q1836.39 41.7891 1836.39 49.9314 Q1836.39 58.0738 1839.83 62.7728 Q1843.31 67.4314 1849.35 67.4314 Q1855.3 67.4314 1858.79 62.7323 Q1862.27 58.0333 1862.27 49.9314 Q1862.27 41.8701 1858.79 37.1711 Q1855.3 32.4315 1849.35 32.4315 M1849.35 26.1121 Q1859.07 26.1121 1864.62 32.4315 Q1870.17 38.7509 1870.17 49.9314 Q1870.17 61.0714 1864.62 67.4314 Q1859.07 73.7508 1849.35 73.7508 Q1839.59 73.7508 1834.04 67.4314 Q1828.53 61.0714 1828.53 49.9314 Q1828.53 38.7509 1834.04 32.4315 Q1839.59 26.1121 1849.35 26.1121 Z" fill="#000000" fill-rule="nonzero" fill-opacity="1"></path><path clip-path="url(#clip910)" d="M1905.49 9.54393 L1905.49 15.7418 L1898.37 15.7418 Q1894.35 15.7418 1892.77 17.3622 Q1891.24 18.9825 1891.24 23.1955 L1891.24 27.2059 L1903.51 27.2059 L1903.51 32.9987 L1891.24 32.9987 L1891.24 72.576 L1883.74 72.576 L1883.74 32.9987 L1876.61 32.9987 L1876.61 27.2059 L1883.74 27.2059 L1883.74 24.0462 Q1883.74 16.471 1887.27 13.0277 Q1890.79 9.54393 1898.45 9.54393 L1905.49 9.54393 Z" fill="#000000" fill-rule="nonzero" fill-opacity="1"></path><path clip-path="url(#clip910)" d="M1934.7 9.54393 L1934.7 15.7418 L1927.57 15.7418 Q1923.56 15.7418 1921.98 17.3622 Q1920.44 18.9825 1920.44 23.1955 L1920.44 27.2059 L1932.72 27.2059 L1932.72 32.9987 L1920.44 32.9987 L1920.44 72.576 L1912.95 72.576 L1912.95 32.9987 L1905.82 32.9987 L1905.82 27.2059 L1912.95 27.2059 L1912.95 24.0462 Q1912.95 16.471 1916.47 13.0277 Q1920 9.54393 1927.65 9.54393 L1934.7 9.54393 Z" fill="#000000" fill-rule="nonzero" fill-opacity="1"></path><circle clip-path="url(#clip912)" cx="2203.63" cy="1249.05" r="14.4" fill="#009af9" fill-rule="evenodd" fill-opacity="1" stroke="#000000" stroke-opacity="1" stroke-width="3.2"></circle>
<circle clip-path="url(#clip912)" cx="2239.81" cy="1124.84" r="14.4" fill="#009af9" fill-rule="evenodd" fill-opacity="1" stroke="#000000" stroke-opacity="1" stroke-width="3.2"></circle>
<circle clip-path="url(#clip912)" cx="2201.01" cy="1223.96" r="14.4" fill="#009af9" fill-rule="evenodd" fill-opacity="1" stroke="#000000" stroke-opacity="1" stroke-width="3.2"></circle>
<circle clip-path="url(#clip912)" cx="2243.45" cy="1183.24" r="14.4" fill="#009af9" fill-rule="evenodd" fill-opacity="1" stroke="#000000" stroke-opacity="1" stroke-width="3.2"></circle>
<circle clip-path="url(#clip912)" cx="2154.39" cy="1103.43" r="14.4" fill="#009af9" fill-rule="evenodd" fill-opacity="1" stroke="#000000" stroke-opacity="1" stroke-width="3.2"></circle>
<circle clip-path="url(#clip912)" cx="2233.51" cy="1187.99" r="14.4" fill="#009af9" fill-rule="evenodd" fill-opacity="1" stroke="#000000" stroke-opacity="1" stroke-width="3.2"></circle>
<circle clip-path="url(#clip912)" cx="2206.1" cy="1141.63" r="14.4" fill="#009af9" fill-rule="evenodd" fill-opacity="1" stroke="#000000" stroke-opacity="1" stroke-width="3.2"></circle>
<circle clip-path="url(#clip912)" cx="2162.93" cy="1076.32" r="14.4" fill="#009af9" fill-rule="evenodd" fill-opacity="1" stroke="#000000" stroke-opacity="1" stroke-width="3.2"></circle>
<circle clip-path="url(#clip912)" cx="2208.14" cy="1137.36" r="14.4" fill="#009af9" fill-rule="evenodd" fill-opacity="1" stroke="#000000" stroke-opacity="1" stroke-width="3.2"></circle>
<circle clip-path="url(#clip912)" cx="2209.25" cy="381.783" r="14.4" fill="#009af9" fill-rule="evenodd" fill-opacity="1" stroke="#000000" stroke-opacity="1" stroke-width="3.2"></circle>
<circle clip-path="url(#clip912)" cx="2193.22" cy="1130.74" r="14.4" fill="#009af9" fill-rule="evenodd" fill-opacity="1" stroke="#000000" stroke-opacity="1" stroke-width="3.2"></circle>
<circle clip-path="url(#clip912)" cx="2170.53" cy="1006.52" r="14.4" fill="#009af9" fill-rule="evenodd" fill-opacity="1" stroke="#000000" stroke-opacity="1" stroke-width="3.2"></circle>
<circle clip-path="url(#clip912)" cx="1674.52" cy="1353.65" r="14.4" fill="#e26f46" fill-rule="evenodd" fill-opacity="1" stroke="#000000" stroke-opacity="1" stroke-width="3.2"></circle>
<circle clip-path="url(#clip912)" cx="1692.67" cy="1331.65" r="14.4" fill="#e26f46" fill-rule="evenodd" fill-opacity="1" stroke="#000000" stroke-opacity="1" stroke-width="3.2"></circle>
<circle clip-path="url(#clip912)" cx="1636.02" cy="1256.75" r="14.4" fill="#e26f46" fill-rule="evenodd" fill-opacity="1" stroke="#000000" stroke-opacity="1" stroke-width="3.2"></circle>
<circle clip-path="url(#clip912)" cx="1510.94" cy="1337.36" r="14.4" fill="#e26f46" fill-rule="evenodd" fill-opacity="1" stroke="#000000" stroke-opacity="1" stroke-width="3.2"></circle>
<circle clip-path="url(#clip912)" cx="1678.07" cy="1315.64" r="14.4" fill="#e26f46" fill-rule="evenodd" fill-opacity="1" stroke="#000000" stroke-opacity="1" stroke-width="3.2"></circle>
<circle clip-path="url(#clip912)" cx="1625.03" cy="1339.09" r="14.4" fill="#e26f46" fill-rule="evenodd" fill-opacity="1" stroke="#000000" stroke-opacity="1" stroke-width="3.2"></circle>
<circle clip-path="url(#clip912)" cx="1615.61" cy="1244.62" r="14.4" fill="#e26f46" fill-rule="evenodd" fill-opacity="1" stroke="#000000" stroke-opacity="1" stroke-width="3.2"></circle>
<circle clip-path="url(#clip912)" cx="1550.17" cy="1353.85" r="14.4" fill="#e26f46" fill-rule="evenodd" fill-opacity="1" stroke="#000000" stroke-opacity="1" stroke-width="3.2"></circle>
<circle clip-path="url(#clip912)" cx="1540.34" cy="1212.67" r="14.4" fill="#e26f46" fill-rule="evenodd" fill-opacity="1" stroke="#000000" stroke-opacity="1" stroke-width="3.2"></circle>
<circle clip-path="url(#clip912)" cx="1464.96" cy="1340.79" r="14.4" fill="#e26f46" fill-rule="evenodd" fill-opacity="1" stroke="#000000" stroke-opacity="1" stroke-width="3.2"></circle>
<circle clip-path="url(#clip912)" cx="1402.31" cy="1293.4" r="14.4" fill="#e26f46" fill-rule="evenodd" fill-opacity="1" stroke="#000000" stroke-opacity="1" stroke-width="3.2"></circle>
<circle clip-path="url(#clip912)" cx="1499.71" cy="1249.47" r="14.4" fill="#e26f46" fill-rule="evenodd" fill-opacity="1" stroke="#000000" stroke-opacity="1" stroke-width="3.2"></circle>
<circle clip-path="url(#clip912)" cx="921.693" cy="1342.53" r="14.4" fill="#3da44d" fill-rule="evenodd" fill-opacity="1" stroke="#000000" stroke-opacity="1" stroke-width="3.2"></circle>
<circle clip-path="url(#clip912)" cx="307.043" cy="1364" r="14.4" fill="#3da44d" fill-rule="evenodd" fill-opacity="1" stroke="#000000" stroke-opacity="1" stroke-width="3.2"></circle>
<circle clip-path="url(#clip912)" cx="586.825" cy="1287.61" r="14.4" fill="#3da44d" fill-rule="evenodd" fill-opacity="1" stroke="#000000" stroke-opacity="1" stroke-width="3.2"></circle>
<circle clip-path="url(#clip912)" cx="673.57" cy="1372.42" r="14.4" fill="#3da44d" fill-rule="evenodd" fill-opacity="1" stroke="#000000" stroke-opacity="1" stroke-width="3.2"></circle>
<circle clip-path="url(#clip912)" cx="633.598" cy="1367.02" r="14.4" fill="#3da44d" fill-rule="evenodd" fill-opacity="1" stroke="#000000" stroke-opacity="1" stroke-width="3.2"></circle>
<circle clip-path="url(#clip912)" cx="491.074" cy="1349.68" r="14.4" fill="#3da44d" fill-rule="evenodd" fill-opacity="1" stroke="#000000" stroke-opacity="1" stroke-width="3.2"></circle>
<circle clip-path="url(#clip912)" cx="648.715" cy="1352.45" r="14.4" fill="#3da44d" fill-rule="evenodd" fill-opacity="1" stroke="#000000" stroke-opacity="1" stroke-width="3.2"></circle>
<circle clip-path="url(#clip912)" cx="690.486" cy="1299.57" r="14.4" fill="#3da44d" fill-rule="evenodd" fill-opacity="1" stroke="#000000" stroke-opacity="1" stroke-width="3.2"></circle>
<circle clip-path="url(#clip912)" cx="409.308" cy="1379.8" r="14.4" fill="#3da44d" fill-rule="evenodd" fill-opacity="1" stroke="#000000" stroke-opacity="1" stroke-width="3.2"></circle>
<circle clip-path="url(#clip912)" cx="435.974" cy="1329.61" r="14.4" fill="#3da44d" fill-rule="evenodd" fill-opacity="1" stroke="#000000" stroke-opacity="1" stroke-width="3.2"></circle>
<circle clip-path="url(#clip912)" cx="853.469" cy="1350.83" r="14.4" fill="#3da44d" fill-rule="evenodd" fill-opacity="1" stroke="#000000" stroke-opacity="1" stroke-width="3.2"></circle>
<circle clip-path="url(#clip912)" cx="1045.87" cy="1302.62" r="14.4" fill="#3da44d" fill-rule="evenodd" fill-opacity="1" stroke="#000000" stroke-opacity="1" stroke-width="3.2"></circle>
<circle clip-path="url(#clip912)" cx="2293.17" cy="932.064" r="14.4" fill="#c271d2" fill-rule="evenodd" fill-opacity="1" stroke="#000000" stroke-opacity="1" stroke-width="3.2"></circle>
<circle clip-path="url(#clip912)" cx="2174.85" cy="1315.62" r="14.4" fill="#c271d2" fill-rule="evenodd" fill-opacity="1" stroke="#000000" stroke-opacity="1" stroke-width="3.2"></circle>
<circle clip-path="url(#clip912)" cx="2241.06" cy="160.256" r="14.4" fill="#c271d2" fill-rule="evenodd" fill-opacity="1" stroke="#000000" stroke-opacity="1" stroke-width="3.2"></circle>
<circle clip-path="url(#clip912)" cx="2200.09" cy="1087.4" r="14.4" fill="#c271d2" fill-rule="evenodd" fill-opacity="1" stroke="#000000" stroke-opacity="1" stroke-width="3.2"></circle>
<circle clip-path="url(#clip912)" cx="2213.51" cy="705.626" r="14.4" fill="#c271d2" fill-rule="evenodd" fill-opacity="1" stroke="#000000" stroke-opacity="1" stroke-width="3.2"></circle>
<circle clip-path="url(#clip912)" cx="2143.23" cy="1260.25" r="14.4" fill="#c271d2" fill-rule="evenodd" fill-opacity="1" stroke="#000000" stroke-opacity="1" stroke-width="3.2"></circle>
<circle clip-path="url(#clip912)" cx="1559.87" cy="1316.29" r="14.4" fill="#ac8d18" fill-rule="evenodd" fill-opacity="1" stroke="#000000" stroke-opacity="1" stroke-width="3.2"></circle>
<circle clip-path="url(#clip912)" cx="1486.13" cy="1386.4" r="14.4" fill="#ac8d18" fill-rule="evenodd" fill-opacity="1" stroke="#000000" stroke-opacity="1" stroke-width="3.2"></circle>
<circle clip-path="url(#clip912)" cx="1572.6" cy="673.633" r="14.4" fill="#ac8d18" fill-rule="evenodd" fill-opacity="1" stroke="#000000" stroke-opacity="1" stroke-width="3.2"></circle>
<circle clip-path="url(#clip912)" cx="1423.59" cy="1270.71" r="14.4" fill="#ac8d18" fill-rule="evenodd" fill-opacity="1" stroke="#000000" stroke-opacity="1" stroke-width="3.2"></circle>
<circle clip-path="url(#clip912)" cx="1517.91" cy="1199.88" r="14.4" fill="#ac8d18" fill-rule="evenodd" fill-opacity="1" stroke="#000000" stroke-opacity="1" stroke-width="3.2"></circle>
<circle clip-path="url(#clip912)" cx="1543.14" cy="1330.53" r="14.4" fill="#ac8d18" fill-rule="evenodd" fill-opacity="1" stroke="#000000" stroke-opacity="1" stroke-width="3.2"></circle>
<circle clip-path="url(#clip912)" cx="1004.19" cy="1328.8" r="14.4" fill="#00a9ad" fill-rule="evenodd" fill-opacity="1" stroke="#000000" stroke-opacity="1" stroke-width="3.2"></circle>
<circle clip-path="url(#clip912)" cx="732.844" cy="1385.05" r="14.4" fill="#00a9ad" fill-rule="evenodd" fill-opacity="1" stroke="#000000" stroke-opacity="1" stroke-width="3.2"></circle>
<circle clip-path="url(#clip912)" cx="992.567" cy="1238.39" r="14.4" fill="#00a9ad" fill-rule="evenodd" fill-opacity="1" stroke="#000000" stroke-opacity="1" stroke-width="3.2"></circle>
<circle clip-path="url(#clip912)" cx="601.196" cy="1326.06" r="14.4" fill="#00a9ad" fill-rule="evenodd" fill-opacity="1" stroke="#000000" stroke-opacity="1" stroke-width="3.2"></circle>
<circle clip-path="url(#clip912)" cx="596.597" cy="1326.96" r="14.4" fill="#00a9ad" fill-rule="evenodd" fill-opacity="1" stroke="#000000" stroke-opacity="1" stroke-width="3.2"></circle>
<circle clip-path="url(#clip912)" cx="784.094" cy="1358.54" r="14.4" fill="#00a9ad" fill-rule="evenodd" fill-opacity="1" stroke="#000000" stroke-opacity="1" stroke-width="3.2"></circle>
<path clip-path="url(#clip910)" d="M317.635 529.676 L610.294 529.676 L610.294 166.796 L317.635 166.796  Z" fill="#ffffff" fill-rule="evenodd" fill-opacity="1"></path>
<polyline clip-path="url(#clip910)" style="stroke:#000000; stroke-linecap:round; stroke-linejoin:round; stroke-width:4; stroke-opacity:1; fill:none" points="317.635,529.676 610.294,529.676 610.294,166.796 317.635,166.796 317.635,529.676 "></polyline>
<circle clip-path="url(#clip910)" cx="411.204" cy="218.636" r="20.48" fill="#009af9" fill-rule="evenodd" fill-opacity="1" stroke="#000000" stroke-opacity="1" stroke-width="4.55111"></circle>
<path clip-path="url(#clip910)" d="M506.231 201.356 L524.588 201.356 L524.588 205.291 L510.514 205.291 L510.514 213.763 Q511.532 213.416 512.551 213.254 Q513.569 213.069 514.588 213.069 Q520.375 213.069 523.754 216.24 Q527.134 219.411 527.134 224.828 Q527.134 230.406 523.662 233.508 Q520.189 236.587 513.87 236.587 Q511.694 236.587 509.426 236.217 Q507.18 235.846 504.773 235.106 L504.773 230.406 Q506.856 231.541 509.078 232.096 Q511.301 232.652 513.777 232.652 Q517.782 232.652 520.12 230.545 Q522.458 228.439 522.458 224.828 Q522.458 221.217 520.12 219.11 Q517.782 217.004 513.777 217.004 Q511.902 217.004 510.027 217.42 Q508.176 217.837 506.231 218.717 L506.231 201.356 Z" fill="#000000" fill-rule="nonzero" fill-opacity="1"></path><circle clip-path="url(#clip910)" cx="411.204" cy="270.476" r="20.48" fill="#e26f46" fill-rule="evenodd" fill-opacity="1" stroke="#000000" stroke-opacity="1" stroke-width="4.55111"></circle>
<path clip-path="url(#clip910)" d="M505.444 283.821 L513.083 283.821 L513.083 257.455 L504.773 259.122 L504.773 254.862 L513.037 253.196 L517.713 253.196 L517.713 283.821 L525.351 283.821 L525.351 287.756 L505.444 287.756 L505.444 283.821 Z" fill="#000000" fill-rule="nonzero" fill-opacity="1"></path><path clip-path="url(#clip910)" d="M544.796 256.274 Q541.185 256.274 539.356 259.839 Q537.55 263.381 537.55 270.51 Q537.55 277.617 539.356 281.182 Q541.185 284.723 544.796 284.723 Q548.43 284.723 550.236 281.182 Q552.064 277.617 552.064 270.51 Q552.064 263.381 550.236 259.839 Q548.43 256.274 544.796 256.274 M544.796 252.571 Q550.606 252.571 553.661 257.177 Q556.74 261.76 556.74 270.51 Q556.74 279.237 553.661 283.844 Q550.606 288.427 544.796 288.427 Q538.986 288.427 535.907 283.844 Q532.851 279.237 532.851 270.51 Q532.851 261.76 535.907 257.177 Q538.986 252.571 544.796 252.571 Z" fill="#000000" fill-rule="nonzero" fill-opacity="1"></path><circle clip-path="url(#clip910)" cx="411.204" cy="322.316" r="20.48" fill="#3da44d" fill-rule="evenodd" fill-opacity="1" stroke="#000000" stroke-opacity="1" stroke-width="4.55111"></circle>
<path clip-path="url(#clip910)" d="M505.444 335.661 L513.083 335.661 L513.083 309.295 L504.773 310.962 L504.773 306.702 L513.037 305.036 L517.713 305.036 L517.713 335.661 L525.351 335.661 L525.351 339.596 L505.444 339.596 L505.444 335.661 Z" fill="#000000" fill-rule="nonzero" fill-opacity="1"></path><path clip-path="url(#clip910)" d="M534.842 305.036 L553.198 305.036 L553.198 308.971 L539.124 308.971 L539.124 317.443 Q540.143 317.096 541.162 316.934 Q542.18 316.749 543.199 316.749 Q548.986 316.749 552.365 319.92 Q555.745 323.091 555.745 328.508 Q555.745 334.086 552.273 337.188 Q548.8 340.267 542.481 340.267 Q540.305 340.267 538.037 339.897 Q535.791 339.526 533.384 338.786 L533.384 334.086 Q535.467 335.221 537.689 335.776 Q539.912 336.332 542.388 336.332 Q546.393 336.332 548.731 334.225 Q551.069 332.119 551.069 328.508 Q551.069 324.897 548.731 322.79 Q546.393 320.684 542.388 320.684 Q540.513 320.684 538.638 321.1 Q536.787 321.517 534.842 322.397 L534.842 305.036 Z" fill="#000000" fill-rule="nonzero" fill-opacity="1"></path><circle clip-path="url(#clip910)" cx="411.204" cy="374.156" r="20.48" fill="#c271d2" fill-rule="evenodd" fill-opacity="1" stroke="#000000" stroke-opacity="1" stroke-width="4.55111"></circle>
<path clip-path="url(#clip910)" d="M506.231 356.876 L524.588 356.876 L524.588 360.811 L510.514 360.811 L510.514 369.283 Q511.532 368.936 512.551 368.774 Q513.569 368.589 514.588 368.589 Q520.375 368.589 523.754 371.76 Q527.134 374.931 527.134 380.348 Q527.134 385.926 523.662 389.028 Q520.189 392.107 513.87 392.107 Q511.694 392.107 509.426 391.737 Q507.18 391.366 504.773 390.626 L504.773 385.926 Q506.856 387.061 509.078 387.616 Q511.301 388.172 513.777 388.172 Q517.782 388.172 520.12 386.065 Q522.458 383.959 522.458 380.348 Q522.458 376.737 520.12 374.63 Q517.782 372.524 513.777 372.524 Q511.902 372.524 510.027 372.94 Q508.176 373.357 506.231 374.237 L506.231 356.876 Z" fill="#000000" fill-rule="nonzero" fill-opacity="1"></path><path clip-path="url(#clip910)" d="M546.347 359.954 Q542.736 359.954 540.907 363.519 Q539.101 367.061 539.101 374.19 Q539.101 381.297 540.907 384.862 Q542.736 388.403 546.347 388.403 Q549.981 388.403 551.786 384.862 Q553.615 381.297 553.615 374.19 Q553.615 367.061 551.786 363.519 Q549.981 359.954 546.347 359.954 M546.347 356.251 Q552.157 356.251 555.212 360.857 Q558.291 365.44 558.291 374.19 Q558.291 382.917 555.212 387.524 Q552.157 392.107 546.347 392.107 Q540.537 392.107 537.458 387.524 Q534.402 382.917 534.402 374.19 Q534.402 365.44 537.458 360.857 Q540.537 356.251 546.347 356.251 Z" fill="#000000" fill-rule="nonzero" fill-opacity="1"></path><circle clip-path="url(#clip910)" cx="411.204" cy="425.996" r="20.48" fill="#ac8d18" fill-rule="evenodd" fill-opacity="1" stroke="#000000" stroke-opacity="1" stroke-width="4.55111"></circle>
<path clip-path="url(#clip910)" d="M505.444 439.341 L513.083 439.341 L513.083 412.975 L504.773 414.642 L504.773 410.382 L513.037 408.716 L517.713 408.716 L517.713 439.341 L525.351 439.341 L525.351 443.276 L505.444 443.276 L505.444 439.341 Z" fill="#000000" fill-rule="nonzero" fill-opacity="1"></path><path clip-path="url(#clip910)" d="M544.796 411.794 Q541.185 411.794 539.356 415.359 Q537.55 418.901 537.55 426.03 Q537.55 433.137 539.356 436.702 Q541.185 440.243 544.796 440.243 Q548.43 440.243 550.236 436.702 Q552.064 433.137 552.064 426.03 Q552.064 418.901 550.236 415.359 Q548.43 411.794 544.796 411.794 M544.796 408.091 Q550.606 408.091 553.661 412.697 Q556.74 417.28 556.74 426.03 Q556.74 434.757 553.661 439.364 Q550.606 443.947 544.796 443.947 Q538.986 443.947 535.907 439.364 Q532.851 434.757 532.851 426.03 Q532.851 417.28 535.907 412.697 Q538.986 408.091 544.796 408.091 Z" fill="#000000" fill-rule="nonzero" fill-opacity="1"></path><path clip-path="url(#clip910)" d="M574.958 411.794 Q571.347 411.794 569.518 415.359 Q567.712 418.901 567.712 426.03 Q567.712 433.137 569.518 436.702 Q571.347 440.243 574.958 440.243 Q578.592 440.243 580.397 436.702 Q582.226 433.137 582.226 426.03 Q582.226 418.901 580.397 415.359 Q578.592 411.794 574.958 411.794 M574.958 408.091 Q580.768 408.091 583.823 412.697 Q586.902 417.28 586.902 426.03 Q586.902 434.757 583.823 439.364 Q580.768 443.947 574.958 443.947 Q569.147 443.947 566.069 439.364 Q563.013 434.757 563.013 426.03 Q563.013 417.28 566.069 412.697 Q569.147 408.091 574.958 408.091 Z" fill="#000000" fill-rule="nonzero" fill-opacity="1"></path><circle clip-path="url(#clip910)" cx="411.204" cy="477.836" r="20.48" fill="#00a9ad" fill-rule="evenodd" fill-opacity="1" stroke="#000000" stroke-opacity="1" stroke-width="4.55111"></circle>
<path clip-path="url(#clip910)" d="M505.444 491.181 L513.083 491.181 L513.083 464.815 L504.773 466.482 L504.773 462.222 L513.037 460.556 L517.713 460.556 L517.713 491.181 L525.351 491.181 L525.351 495.116 L505.444 495.116 L505.444 491.181 Z" fill="#000000" fill-rule="nonzero" fill-opacity="1"></path><path clip-path="url(#clip910)" d="M534.842 460.556 L553.198 460.556 L553.198 464.491 L539.124 464.491 L539.124 472.963 Q540.143 472.616 541.162 472.454 Q542.18 472.269 543.199 472.269 Q548.986 472.269 552.365 475.44 Q555.745 478.611 555.745 484.028 Q555.745 489.606 552.273 492.708 Q548.8 495.787 542.481 495.787 Q540.305 495.787 538.037 495.417 Q535.791 495.046 533.384 494.306 L533.384 489.606 Q535.467 490.741 537.689 491.296 Q539.912 491.852 542.388 491.852 Q546.393 491.852 548.731 489.745 Q551.069 487.639 551.069 484.028 Q551.069 480.417 548.731 478.31 Q546.393 476.204 542.388 476.204 Q540.513 476.204 538.638 476.62 Q536.787 477.037 534.842 477.917 L534.842 460.556 Z" fill="#000000" fill-rule="nonzero" fill-opacity="1"></path><path clip-path="url(#clip910)" d="M574.958 463.634 Q571.347 463.634 569.518 467.199 Q567.712 470.741 567.712 477.87 Q567.712 484.977 569.518 488.542 Q571.347 492.083 574.958 492.083 Q578.592 492.083 580.397 488.542 Q582.226 484.977 582.226 477.87 Q582.226 470.741 580.397 467.199 Q578.592 463.634 574.958 463.634 M574.958 459.931 Q580.768 459.931 583.823 464.537 Q586.902 469.12 586.902 477.87 Q586.902 486.597 583.823 491.204 Q580.768 495.787 574.958 495.787 Q569.147 495.787 566.069 491.204 Q563.013 486.597 563.013 477.87 Q563.013 469.12 566.069 464.537 Q569.147 459.931 574.958 459.931 Z" fill="#000000" fill-rule="nonzero" fill-opacity="1"></path></svg>